<svg width="484" height="39" viewBox="0 0 484 39" fill="none" xmlns="http://www.w3.org/2000/svg">
<g filter="url(#filter0_d_26_3)">
<mask id="path-1-outside-1_26_3" maskUnits="userSpaceOnUse" x="2" y="2" width="476" height="31" fill="black">
<rect fill="white" x="2" y="2" width="476" height="31"/>
<path d="M3.23438 31V5.30078H8.68359V31H3.23438ZM32.8711 31H27.5098V19.5215C27.5098 18.1035 27.2578 17.043 26.7539 16.3398C26.25 15.625 25.4473 15.2676 24.3457 15.2676C22.8457 15.2676 21.7617 15.7715 21.0938 16.7793C20.4258 17.7754 20.0918 19.4336 20.0918 21.7539V31H14.7305V11.3477H18.8262L19.5469 13.8613H19.8457C20.4434 12.9121 21.2637 12.1973 22.3066 11.7168C23.3613 11.2246 24.5566 10.9785 25.8926 10.9785C28.1777 10.9785 29.9121 11.5996 31.0957 12.8418C32.2793 14.0723 32.8711 15.8535 32.8711 18.1855V31ZM49.2539 15.373H44.6133V31H39.252V15.373H36.2988V12.7891L39.252 11.3477V9.90625C39.252 7.66797 39.8027 6.0332 40.9043 5.00195C42.0059 3.9707 43.7695 3.45508 46.1953 3.45508C48.0469 3.45508 49.6934 3.73047 51.1348 4.28125L49.7637 8.21875C48.6855 7.87891 47.6895 7.70898 46.7754 7.70898C46.0137 7.70898 45.4629 7.9375 45.123 8.39453C44.7832 8.83984 44.6133 9.41406 44.6133 10.1172V11.3477H49.2539V15.373ZM52.1016 6.26758C52.1016 4.52148 53.0742 3.64844 55.0195 3.64844C56.9648 3.64844 57.9375 4.52148 57.9375 6.26758C57.9375 7.09961 57.6914 7.75 57.1992 8.21875C56.7188 8.67578 55.9922 8.9043 55.0195 8.9043C53.0742 8.9043 52.1016 8.02539 52.1016 6.26758ZM57.6914 31H52.3301V11.3477H57.6914V31ZM81.457 31H76.0957V19.5215C76.0957 18.1035 75.8438 17.043 75.3398 16.3398C74.8359 15.625 74.0332 15.2676 72.9316 15.2676C71.4316 15.2676 70.3477 15.7715 69.6797 16.7793C69.0117 17.7754 68.6777 19.4336 68.6777 21.7539V31H63.3164V11.3477H67.4121L68.1328 13.8613H68.4316C69.0293 12.9121 69.8496 12.1973 70.8926 11.7168C71.9473 11.2246 73.1426 10.9785 74.4785 10.9785C76.7637 10.9785 78.498 11.5996 79.6816 12.8418C80.8652 14.0723 81.457 15.8535 81.457 18.1855V31ZM86.748 6.26758C86.748 4.52148 87.7207 3.64844 89.666 3.64844C91.6113 3.64844 92.584 4.52148 92.584 6.26758C92.584 7.09961 92.3379 7.75 91.8457 8.21875C91.3652 8.67578 90.6387 8.9043 89.666 8.9043C87.7207 8.9043 86.748 8.02539 86.748 6.26758ZM92.3379 31H86.9766V11.3477H92.3379V31ZM106.26 27.0801C107.197 27.0801 108.322 26.875 109.635 26.4648V30.4551C108.299 31.0527 106.658 31.3516 104.713 31.3516C102.568 31.3516 101.004 30.8125 100.02 29.7344C99.0469 28.6445 98.5605 27.0156 98.5605 24.8477V15.373H95.9941V13.1055L98.9473 11.3125L100.494 7.16406H103.922V11.3477H109.424V15.373H103.922V24.8477C103.922 25.6094 104.133 26.1719 104.555 26.5352C104.988 26.8984 105.557 27.0801 106.26 27.0801ZM121.764 14.793C120.627 14.793 119.736 15.1562 119.092 15.8828C118.447 16.5977 118.078 17.6172 117.984 18.9414H125.508C125.484 17.6172 125.139 16.5977 124.471 15.8828C123.803 15.1562 122.9 14.793 121.764 14.793ZM122.52 31.3516C119.355 31.3516 116.883 30.4785 115.102 28.7324C113.32 26.9863 112.43 24.5137 112.43 21.3145C112.43 18.0215 113.25 15.4785 114.891 13.6855C116.543 11.8809 118.822 10.9785 121.729 10.9785C124.506 10.9785 126.668 11.7695 128.215 13.3516C129.762 14.9336 130.535 17.1191 130.535 19.9082V22.5098H117.861C117.92 24.0332 118.371 25.2227 119.215 26.0781C120.059 26.9336 121.242 27.3613 122.766 27.3613C123.949 27.3613 125.068 27.2383 126.123 26.9922C127.178 26.7461 128.279 26.3535 129.428 25.8145V29.9629C128.49 30.4316 127.488 30.7773 126.422 31C125.355 31.2344 124.055 31.3516 122.52 31.3516ZM159.838 23.8633C159.838 26.1836 159 28.0117 157.324 29.3477C155.66 30.6836 153.34 31.3516 150.363 31.3516C147.621 31.3516 145.195 30.8359 143.086 29.8047V24.7422C144.82 25.5156 146.285 26.0605 147.48 26.377C148.688 26.6934 149.789 26.8516 150.785 26.8516C151.98 26.8516 152.895 26.623 153.527 26.166C154.172 25.709 154.494 25.0293 154.494 24.127C154.494 23.623 154.354 23.1777 154.072 22.791C153.791 22.3926 153.375 22.0117 152.824 21.6484C152.285 21.2852 151.178 20.7051 149.502 19.9082C147.932 19.1699 146.754 18.4609 145.969 17.7812C145.184 17.1016 144.557 16.3105 144.088 15.4082C143.619 14.5059 143.385 13.4512 143.385 12.2441C143.385 9.9707 144.152 8.18359 145.688 6.88281C147.234 5.58203 149.367 4.93164 152.086 4.93164C153.422 4.93164 154.693 5.08984 155.9 5.40625C157.119 5.72266 158.391 6.16797 159.715 6.74219L157.957 10.9785C156.586 10.416 155.449 10.0234 154.547 9.80078C153.656 9.57812 152.777 9.4668 151.91 9.4668C150.879 9.4668 150.088 9.70703 149.537 10.1875C148.986 10.668 148.711 11.2949 148.711 12.0684C148.711 12.5488 148.822 12.9707 149.045 13.334C149.268 13.6855 149.619 14.0312 150.1 14.3711C150.592 14.6992 151.746 15.2969 153.562 16.1641C155.965 17.3125 157.611 18.4668 158.502 19.627C159.393 20.7754 159.838 22.1875 159.838 23.8633ZM172.213 14.793C171.076 14.793 170.186 15.1562 169.541 15.8828C168.896 16.5977 168.527 17.6172 168.434 18.9414H175.957C175.934 17.6172 175.588 16.5977 174.92 15.8828C174.252 15.1562 173.35 14.793 172.213 14.793ZM172.969 31.3516C169.805 31.3516 167.332 30.4785 165.551 28.7324C163.77 26.9863 162.879 24.5137 162.879 21.3145C162.879 18.0215 163.699 15.4785 165.34 13.6855C166.992 11.8809 169.271 10.9785 172.178 10.9785C174.955 10.9785 177.117 11.7695 178.664 13.3516C180.211 14.9336 180.984 17.1191 180.984 19.9082V22.5098H168.311C168.369 24.0332 168.82 25.2227 169.664 26.0781C170.508 26.9336 171.691 27.3613 173.215 27.3613C174.398 27.3613 175.518 27.2383 176.572 26.9922C177.627 26.7461 178.729 26.3535 179.877 25.8145V29.9629C178.939 30.4316 177.938 30.7773 176.871 31C175.805 31.2344 174.504 31.3516 172.969 31.3516ZM202.939 31H197.578V19.5215C197.578 18.1035 197.338 17.043 196.857 16.3398C196.389 15.625 195.645 15.2676 194.625 15.2676C193.254 15.2676 192.258 15.7715 191.637 16.7793C191.016 17.7871 190.705 19.4453 190.705 21.7539V31H185.344V11.3477H189.439L190.16 13.8613H190.459C190.986 12.959 191.748 12.2559 192.744 11.752C193.74 11.2363 194.883 10.9785 196.172 10.9785C199.113 10.9785 201.105 11.9395 202.148 13.8613H202.623C203.15 12.9473 203.924 12.2383 204.943 11.7344C205.975 11.2305 207.135 10.9785 208.424 10.9785C210.65 10.9785 212.332 11.5527 213.469 12.7012C214.617 13.8379 215.191 15.666 215.191 18.1855V31H209.812V19.5215C209.812 18.1035 209.572 17.043 209.092 16.3398C208.623 15.625 207.879 15.2676 206.859 15.2676C205.547 15.2676 204.562 15.7363 203.906 16.6738C203.262 17.6113 202.939 19.0996 202.939 21.1387V31ZM233.191 31L232.154 28.3281H232.014C231.111 29.4648 230.18 30.2559 229.219 30.7012C228.27 31.1348 227.027 31.3516 225.492 31.3516C223.605 31.3516 222.117 30.8125 221.027 29.7344C219.949 28.6562 219.41 27.1211 219.41 25.1289C219.41 23.043 220.137 21.5078 221.59 20.5234C223.055 19.5273 225.258 18.9766 228.199 18.8711L231.609 18.7656V17.9043C231.609 15.9121 230.59 14.916 228.551 14.916C226.98 14.916 225.135 15.3906 223.014 16.3398L221.238 12.7188C223.5 11.5352 226.008 10.9434 228.762 10.9434C231.398 10.9434 233.42 11.5176 234.826 12.666C236.232 13.8145 236.936 15.5605 236.936 17.9043V31H233.191ZM231.609 21.8945L229.535 21.9648C227.977 22.0117 226.816 22.293 226.055 22.8086C225.293 23.3242 224.912 24.1094 224.912 25.1641C224.912 26.6758 225.779 27.4316 227.514 27.4316C228.756 27.4316 229.746 27.0742 230.484 26.3594C231.234 25.6445 231.609 24.6953 231.609 23.5117V21.8945ZM260.613 31H255.252V19.5215C255.252 18.1035 255 17.043 254.496 16.3398C253.992 15.625 253.189 15.2676 252.088 15.2676C250.588 15.2676 249.504 15.7715 248.836 16.7793C248.168 17.7754 247.834 19.4336 247.834 21.7539V31H242.473V11.3477H246.568L247.289 13.8613H247.588C248.186 12.9121 249.006 12.1973 250.049 11.7168C251.104 11.2246 252.299 10.9785 253.635 10.9785C255.92 10.9785 257.654 11.5996 258.838 12.8418C260.021 14.0723 260.613 15.8535 260.613 18.1855V31ZM274.412 27.0801C275.35 27.0801 276.475 26.875 277.787 26.4648V30.4551C276.451 31.0527 274.811 31.3516 272.865 31.3516C270.721 31.3516 269.156 30.8125 268.172 29.7344C267.199 28.6445 266.713 27.0156 266.713 24.8477V15.373H264.146V13.1055L267.1 11.3125L268.646 7.16406H272.074V11.3477H277.576V15.373H272.074V24.8477C272.074 25.6094 272.285 26.1719 272.707 26.5352C273.141 26.8984 273.709 27.0801 274.412 27.0801ZM281.549 6.26758C281.549 4.52148 282.521 3.64844 284.467 3.64844C286.412 3.64844 287.385 4.52148 287.385 6.26758C287.385 7.09961 287.139 7.75 286.646 8.21875C286.166 8.67578 285.439 8.9043 284.467 8.9043C282.521 8.9043 281.549 8.02539 281.549 6.26758ZM287.139 31H281.777V11.3477H287.139V31ZM300.762 31.3516C294.645 31.3516 291.586 27.9941 291.586 21.2793C291.586 17.9395 292.418 15.3906 294.082 13.6328C295.746 11.8633 298.131 10.9785 301.236 10.9785C303.51 10.9785 305.549 11.4238 307.354 12.3145L305.771 16.4629C304.928 16.123 304.143 15.8477 303.416 15.6367C302.689 15.4141 301.963 15.3027 301.236 15.3027C298.447 15.3027 297.053 17.2832 297.053 21.2441C297.053 25.0879 298.447 27.0098 301.236 27.0098C302.268 27.0098 303.223 26.875 304.102 26.6055C304.98 26.3242 305.859 25.8906 306.738 25.3047V29.8926C305.871 30.4434 304.992 30.8242 304.102 31.0352C303.223 31.2461 302.109 31.3516 300.762 31.3516ZM342.404 17.9043C342.404 22.1348 341.197 25.375 338.783 27.625C336.381 29.875 332.906 31 328.359 31H321.082V5.30078H329.15C333.346 5.30078 336.604 6.4082 338.924 8.62305C341.244 10.8379 342.404 13.9316 342.404 17.9043ZM336.744 18.0449C336.744 12.5254 334.307 9.76562 329.432 9.76562H326.531V26.5H328.869C334.119 26.5 336.744 23.6816 336.744 18.0449ZM361.23 31L360.51 28.4863H360.229C359.654 29.4004 358.84 30.1094 357.785 30.6133C356.73 31.1055 355.529 31.3516 354.182 31.3516C351.873 31.3516 350.133 30.7363 348.961 29.5059C347.789 28.2637 347.203 26.4824 347.203 24.1621V11.3477H352.564V22.8262C352.564 24.2441 352.816 25.3105 353.32 26.0254C353.824 26.7285 354.627 27.0801 355.729 27.0801C357.229 27.0801 358.312 26.582 358.98 25.5859C359.648 24.5781 359.982 22.9141 359.982 20.5938V11.3477H365.344V31H361.23ZM381.938 10.9785C382.664 10.9785 383.268 11.0312 383.748 11.1367L383.344 16.1641C382.91 16.0469 382.383 15.9883 381.762 15.9883C380.051 15.9883 378.715 16.4277 377.754 17.3066C376.805 18.1855 376.33 19.416 376.33 20.998V31H370.969V11.3477H375.029L375.82 14.6523H376.084C376.693 13.5508 377.514 12.666 378.545 11.998C379.588 11.3184 380.719 10.9785 381.938 10.9785ZM399.797 31L398.76 28.3281H398.619C397.717 29.4648 396.785 30.2559 395.824 30.7012C394.875 31.1348 393.633 31.3516 392.098 31.3516C390.211 31.3516 388.723 30.8125 387.633 29.7344C386.555 28.6562 386.016 27.1211 386.016 25.1289C386.016 23.043 386.742 21.5078 388.195 20.5234C389.66 19.5273 391.863 18.9766 394.805 18.8711L398.215 18.7656V17.9043C398.215 15.9121 397.195 14.916 395.156 14.916C393.586 14.916 391.74 15.3906 389.619 16.3398L387.844 12.7188C390.105 11.5352 392.613 10.9434 395.367 10.9434C398.004 10.9434 400.025 11.5176 401.432 12.666C402.838 13.8145 403.541 15.5605 403.541 17.9043V31H399.797ZM398.215 21.8945L396.141 21.9648C394.582 22.0117 393.422 22.293 392.66 22.8086C391.898 23.3242 391.518 24.1094 391.518 25.1641C391.518 26.6758 392.385 27.4316 394.119 27.4316C395.361 27.4316 396.352 27.0742 397.09 26.3594C397.84 25.6445 398.215 24.6953 398.215 23.5117V21.8945ZM417.357 27.0801C418.295 27.0801 419.42 26.875 420.732 26.4648V30.4551C419.396 31.0527 417.756 31.3516 415.811 31.3516C413.666 31.3516 412.102 30.8125 411.117 29.7344C410.145 28.6445 409.658 27.0156 409.658 24.8477V15.373H407.092V13.1055L410.045 11.3125L411.592 7.16406H415.02V11.3477H420.521V15.373H415.02V24.8477C415.02 25.6094 415.23 26.1719 415.652 26.5352C416.086 26.8984 416.654 27.0801 417.357 27.0801ZM424.494 6.26758C424.494 4.52148 425.467 3.64844 427.412 3.64844C429.357 3.64844 430.33 4.52148 430.33 6.26758C430.33 7.09961 430.084 7.75 429.592 8.21875C429.111 8.67578 428.385 8.9043 427.412 8.9043C425.467 8.9043 424.494 8.02539 424.494 6.26758ZM430.084 31H424.723V11.3477H430.084V31ZM439.998 21.1387C439.998 23.084 440.314 24.5547 440.947 25.5508C441.592 26.5469 442.635 27.0449 444.076 27.0449C445.506 27.0449 446.531 26.5527 447.152 25.5684C447.785 24.5723 448.102 23.0957 448.102 21.1387C448.102 19.1934 447.785 17.7344 447.152 16.7617C446.52 15.7891 445.482 15.3027 444.041 15.3027C442.611 15.3027 441.58 15.7891 440.947 16.7617C440.314 17.7227 439.998 19.1816 439.998 21.1387ZM453.586 21.1387C453.586 24.3379 452.742 26.8398 451.055 28.6445C449.367 30.4492 447.018 31.3516 444.006 31.3516C442.119 31.3516 440.455 30.9414 439.014 30.1211C437.572 29.2891 436.465 28.0996 435.691 26.5527C434.918 25.0059 434.531 23.2012 434.531 21.1387C434.531 17.9277 435.369 15.4316 437.045 13.6504C438.721 11.8691 441.076 10.9785 444.111 10.9785C445.998 10.9785 447.662 11.3887 449.104 12.209C450.545 13.0293 451.652 14.207 452.426 15.7422C453.199 17.2773 453.586 19.0762 453.586 21.1387ZM476.156 31H470.795V19.5215C470.795 18.1035 470.543 17.043 470.039 16.3398C469.535 15.625 468.732 15.2676 467.631 15.2676C466.131 15.2676 465.047 15.7715 464.379 16.7793C463.711 17.7754 463.377 19.4336 463.377 21.7539V31H458.016V11.3477H462.111L462.832 13.8613H463.131C463.729 12.9121 464.549 12.1973 465.592 11.7168C466.646 11.2246 467.842 10.9785 469.178 10.9785C471.463 10.9785 473.197 11.5996 474.381 12.8418C475.564 14.0723 476.156 15.8535 476.156 18.1855V31Z"/>
</mask>
<path d="M3.23438 31V5.30078H8.68359V31H3.23438ZM32.8711 31H27.5098V19.5215C27.5098 18.1035 27.2578 17.043 26.7539 16.3398C26.25 15.625 25.4473 15.2676 24.3457 15.2676C22.8457 15.2676 21.7617 15.7715 21.0938 16.7793C20.4258 17.7754 20.0918 19.4336 20.0918 21.7539V31H14.7305V11.3477H18.8262L19.5469 13.8613H19.8457C20.4434 12.9121 21.2637 12.1973 22.3066 11.7168C23.3613 11.2246 24.5566 10.9785 25.8926 10.9785C28.1777 10.9785 29.9121 11.5996 31.0957 12.8418C32.2793 14.0723 32.8711 15.8535 32.8711 18.1855V31ZM49.2539 15.373H44.6133V31H39.252V15.373H36.2988V12.7891L39.252 11.3477V9.90625C39.252 7.66797 39.8027 6.0332 40.9043 5.00195C42.0059 3.9707 43.7695 3.45508 46.1953 3.45508C48.0469 3.45508 49.6934 3.73047 51.1348 4.28125L49.7637 8.21875C48.6855 7.87891 47.6895 7.70898 46.7754 7.70898C46.0137 7.70898 45.4629 7.9375 45.123 8.39453C44.7832 8.83984 44.6133 9.41406 44.6133 10.1172V11.3477H49.2539V15.373ZM52.1016 6.26758C52.1016 4.52148 53.0742 3.64844 55.0195 3.64844C56.9648 3.64844 57.9375 4.52148 57.9375 6.26758C57.9375 7.09961 57.6914 7.75 57.1992 8.21875C56.7188 8.67578 55.9922 8.9043 55.0195 8.9043C53.0742 8.9043 52.1016 8.02539 52.1016 6.26758ZM57.6914 31H52.3301V11.3477H57.6914V31ZM81.457 31H76.0957V19.5215C76.0957 18.1035 75.8438 17.043 75.3398 16.3398C74.8359 15.625 74.0332 15.2676 72.9316 15.2676C71.4316 15.2676 70.3477 15.7715 69.6797 16.7793C69.0117 17.7754 68.6777 19.4336 68.6777 21.7539V31H63.3164V11.3477H67.4121L68.1328 13.8613H68.4316C69.0293 12.9121 69.8496 12.1973 70.8926 11.7168C71.9473 11.2246 73.1426 10.9785 74.4785 10.9785C76.7637 10.9785 78.498 11.5996 79.6816 12.8418C80.8652 14.0723 81.457 15.8535 81.457 18.1855V31ZM86.748 6.26758C86.748 4.52148 87.7207 3.64844 89.666 3.64844C91.6113 3.64844 92.584 4.52148 92.584 6.26758C92.584 7.09961 92.3379 7.75 91.8457 8.21875C91.3652 8.67578 90.6387 8.9043 89.666 8.9043C87.7207 8.9043 86.748 8.02539 86.748 6.26758ZM92.3379 31H86.9766V11.3477H92.3379V31ZM106.26 27.0801C107.197 27.0801 108.322 26.875 109.635 26.4648V30.4551C108.299 31.0527 106.658 31.3516 104.713 31.3516C102.568 31.3516 101.004 30.8125 100.02 29.7344C99.0469 28.6445 98.5605 27.0156 98.5605 24.8477V15.373H95.9941V13.1055L98.9473 11.3125L100.494 7.16406H103.922V11.3477H109.424V15.373H103.922V24.8477C103.922 25.6094 104.133 26.1719 104.555 26.5352C104.988 26.8984 105.557 27.0801 106.26 27.0801ZM121.764 14.793C120.627 14.793 119.736 15.1562 119.092 15.8828C118.447 16.5977 118.078 17.6172 117.984 18.9414H125.508C125.484 17.6172 125.139 16.5977 124.471 15.8828C123.803 15.1562 122.9 14.793 121.764 14.793ZM122.52 31.3516C119.355 31.3516 116.883 30.4785 115.102 28.7324C113.32 26.9863 112.43 24.5137 112.43 21.3145C112.43 18.0215 113.25 15.4785 114.891 13.6855C116.543 11.8809 118.822 10.9785 121.729 10.9785C124.506 10.9785 126.668 11.7695 128.215 13.3516C129.762 14.9336 130.535 17.1191 130.535 19.9082V22.5098H117.861C117.92 24.0332 118.371 25.2227 119.215 26.0781C120.059 26.9336 121.242 27.3613 122.766 27.3613C123.949 27.3613 125.068 27.2383 126.123 26.9922C127.178 26.7461 128.279 26.3535 129.428 25.8145V29.9629C128.49 30.4316 127.488 30.7773 126.422 31C125.355 31.2344 124.055 31.3516 122.52 31.3516ZM159.838 23.8633C159.838 26.1836 159 28.0117 157.324 29.3477C155.66 30.6836 153.34 31.3516 150.363 31.3516C147.621 31.3516 145.195 30.8359 143.086 29.8047V24.7422C144.82 25.5156 146.285 26.0605 147.48 26.377C148.688 26.6934 149.789 26.8516 150.785 26.8516C151.98 26.8516 152.895 26.623 153.527 26.166C154.172 25.709 154.494 25.0293 154.494 24.127C154.494 23.623 154.354 23.1777 154.072 22.791C153.791 22.3926 153.375 22.0117 152.824 21.6484C152.285 21.2852 151.178 20.7051 149.502 19.9082C147.932 19.1699 146.754 18.4609 145.969 17.7812C145.184 17.1016 144.557 16.3105 144.088 15.4082C143.619 14.5059 143.385 13.4512 143.385 12.2441C143.385 9.9707 144.152 8.18359 145.688 6.88281C147.234 5.58203 149.367 4.93164 152.086 4.93164C153.422 4.93164 154.693 5.08984 155.9 5.40625C157.119 5.72266 158.391 6.16797 159.715 6.74219L157.957 10.9785C156.586 10.416 155.449 10.0234 154.547 9.80078C153.656 9.57812 152.777 9.4668 151.91 9.4668C150.879 9.4668 150.088 9.70703 149.537 10.1875C148.986 10.668 148.711 11.2949 148.711 12.0684C148.711 12.5488 148.822 12.9707 149.045 13.334C149.268 13.6855 149.619 14.0312 150.1 14.3711C150.592 14.6992 151.746 15.2969 153.562 16.1641C155.965 17.3125 157.611 18.4668 158.502 19.627C159.393 20.7754 159.838 22.1875 159.838 23.8633ZM172.213 14.793C171.076 14.793 170.186 15.1562 169.541 15.8828C168.896 16.5977 168.527 17.6172 168.434 18.9414H175.957C175.934 17.6172 175.588 16.5977 174.92 15.8828C174.252 15.1562 173.35 14.793 172.213 14.793ZM172.969 31.3516C169.805 31.3516 167.332 30.4785 165.551 28.7324C163.77 26.9863 162.879 24.5137 162.879 21.3145C162.879 18.0215 163.699 15.4785 165.34 13.6855C166.992 11.8809 169.271 10.9785 172.178 10.9785C174.955 10.9785 177.117 11.7695 178.664 13.3516C180.211 14.9336 180.984 17.1191 180.984 19.9082V22.5098H168.311C168.369 24.0332 168.82 25.2227 169.664 26.0781C170.508 26.9336 171.691 27.3613 173.215 27.3613C174.398 27.3613 175.518 27.2383 176.572 26.9922C177.627 26.7461 178.729 26.3535 179.877 25.8145V29.9629C178.939 30.4316 177.938 30.7773 176.871 31C175.805 31.2344 174.504 31.3516 172.969 31.3516ZM202.939 31H197.578V19.5215C197.578 18.1035 197.338 17.043 196.857 16.3398C196.389 15.625 195.645 15.2676 194.625 15.2676C193.254 15.2676 192.258 15.7715 191.637 16.7793C191.016 17.7871 190.705 19.4453 190.705 21.7539V31H185.344V11.3477H189.439L190.16 13.8613H190.459C190.986 12.959 191.748 12.2559 192.744 11.752C193.74 11.2363 194.883 10.9785 196.172 10.9785C199.113 10.9785 201.105 11.9395 202.148 13.8613H202.623C203.15 12.9473 203.924 12.2383 204.943 11.7344C205.975 11.2305 207.135 10.9785 208.424 10.9785C210.65 10.9785 212.332 11.5527 213.469 12.7012C214.617 13.8379 215.191 15.666 215.191 18.1855V31H209.812V19.5215C209.812 18.1035 209.572 17.043 209.092 16.3398C208.623 15.625 207.879 15.2676 206.859 15.2676C205.547 15.2676 204.562 15.7363 203.906 16.6738C203.262 17.6113 202.939 19.0996 202.939 21.1387V31ZM233.191 31L232.154 28.3281H232.014C231.111 29.4648 230.18 30.2559 229.219 30.7012C228.27 31.1348 227.027 31.3516 225.492 31.3516C223.605 31.3516 222.117 30.8125 221.027 29.7344C219.949 28.6562 219.41 27.1211 219.41 25.1289C219.41 23.043 220.137 21.5078 221.59 20.5234C223.055 19.5273 225.258 18.9766 228.199 18.8711L231.609 18.7656V17.9043C231.609 15.9121 230.59 14.916 228.551 14.916C226.98 14.916 225.135 15.3906 223.014 16.3398L221.238 12.7188C223.5 11.5352 226.008 10.9434 228.762 10.9434C231.398 10.9434 233.42 11.5176 234.826 12.666C236.232 13.8145 236.936 15.5605 236.936 17.9043V31H233.191ZM231.609 21.8945L229.535 21.9648C227.977 22.0117 226.816 22.293 226.055 22.8086C225.293 23.3242 224.912 24.1094 224.912 25.1641C224.912 26.6758 225.779 27.4316 227.514 27.4316C228.756 27.4316 229.746 27.0742 230.484 26.3594C231.234 25.6445 231.609 24.6953 231.609 23.5117V21.8945ZM260.613 31H255.252V19.5215C255.252 18.1035 255 17.043 254.496 16.3398C253.992 15.625 253.189 15.2676 252.088 15.2676C250.588 15.2676 249.504 15.7715 248.836 16.7793C248.168 17.7754 247.834 19.4336 247.834 21.7539V31H242.473V11.3477H246.568L247.289 13.8613H247.588C248.186 12.9121 249.006 12.1973 250.049 11.7168C251.104 11.2246 252.299 10.9785 253.635 10.9785C255.92 10.9785 257.654 11.5996 258.838 12.8418C260.021 14.0723 260.613 15.8535 260.613 18.1855V31ZM274.412 27.0801C275.35 27.0801 276.475 26.875 277.787 26.4648V30.4551C276.451 31.0527 274.811 31.3516 272.865 31.3516C270.721 31.3516 269.156 30.8125 268.172 29.7344C267.199 28.6445 266.713 27.0156 266.713 24.8477V15.373H264.146V13.1055L267.1 11.3125L268.646 7.16406H272.074V11.3477H277.576V15.373H272.074V24.8477C272.074 25.6094 272.285 26.1719 272.707 26.5352C273.141 26.8984 273.709 27.0801 274.412 27.0801ZM281.549 6.26758C281.549 4.52148 282.521 3.64844 284.467 3.64844C286.412 3.64844 287.385 4.52148 287.385 6.26758C287.385 7.09961 287.139 7.75 286.646 8.21875C286.166 8.67578 285.439 8.9043 284.467 8.9043C282.521 8.9043 281.549 8.02539 281.549 6.26758ZM287.139 31H281.777V11.3477H287.139V31ZM300.762 31.3516C294.645 31.3516 291.586 27.9941 291.586 21.2793C291.586 17.9395 292.418 15.3906 294.082 13.6328C295.746 11.8633 298.131 10.9785 301.236 10.9785C303.51 10.9785 305.549 11.4238 307.354 12.3145L305.771 16.4629C304.928 16.123 304.143 15.8477 303.416 15.6367C302.689 15.4141 301.963 15.3027 301.236 15.3027C298.447 15.3027 297.053 17.2832 297.053 21.2441C297.053 25.0879 298.447 27.0098 301.236 27.0098C302.268 27.0098 303.223 26.875 304.102 26.6055C304.98 26.3242 305.859 25.8906 306.738 25.3047V29.8926C305.871 30.4434 304.992 30.8242 304.102 31.0352C303.223 31.2461 302.109 31.3516 300.762 31.3516ZM342.404 17.9043C342.404 22.1348 341.197 25.375 338.783 27.625C336.381 29.875 332.906 31 328.359 31H321.082V5.30078H329.15C333.346 5.30078 336.604 6.4082 338.924 8.62305C341.244 10.8379 342.404 13.9316 342.404 17.9043ZM336.744 18.0449C336.744 12.5254 334.307 9.76562 329.432 9.76562H326.531V26.5H328.869C334.119 26.5 336.744 23.6816 336.744 18.0449ZM361.23 31L360.51 28.4863H360.229C359.654 29.4004 358.84 30.1094 357.785 30.6133C356.73 31.1055 355.529 31.3516 354.182 31.3516C351.873 31.3516 350.133 30.7363 348.961 29.5059C347.789 28.2637 347.203 26.4824 347.203 24.1621V11.3477H352.564V22.8262C352.564 24.2441 352.816 25.3105 353.32 26.0254C353.824 26.7285 354.627 27.0801 355.729 27.0801C357.229 27.0801 358.312 26.582 358.98 25.5859C359.648 24.5781 359.982 22.9141 359.982 20.5938V11.3477H365.344V31H361.23ZM381.938 10.9785C382.664 10.9785 383.268 11.0312 383.748 11.1367L383.344 16.1641C382.91 16.0469 382.383 15.9883 381.762 15.9883C380.051 15.9883 378.715 16.4277 377.754 17.3066C376.805 18.1855 376.33 19.416 376.33 20.998V31H370.969V11.3477H375.029L375.82 14.6523H376.084C376.693 13.5508 377.514 12.666 378.545 11.998C379.588 11.3184 380.719 10.9785 381.938 10.9785ZM399.797 31L398.76 28.3281H398.619C397.717 29.4648 396.785 30.2559 395.824 30.7012C394.875 31.1348 393.633 31.3516 392.098 31.3516C390.211 31.3516 388.723 30.8125 387.633 29.7344C386.555 28.6562 386.016 27.1211 386.016 25.1289C386.016 23.043 386.742 21.5078 388.195 20.5234C389.66 19.5273 391.863 18.9766 394.805 18.8711L398.215 18.7656V17.9043C398.215 15.9121 397.195 14.916 395.156 14.916C393.586 14.916 391.74 15.3906 389.619 16.3398L387.844 12.7188C390.105 11.5352 392.613 10.9434 395.367 10.9434C398.004 10.9434 400.025 11.5176 401.432 12.666C402.838 13.8145 403.541 15.5605 403.541 17.9043V31H399.797ZM398.215 21.8945L396.141 21.9648C394.582 22.0117 393.422 22.293 392.66 22.8086C391.898 23.3242 391.518 24.1094 391.518 25.1641C391.518 26.6758 392.385 27.4316 394.119 27.4316C395.361 27.4316 396.352 27.0742 397.09 26.3594C397.84 25.6445 398.215 24.6953 398.215 23.5117V21.8945ZM417.357 27.0801C418.295 27.0801 419.42 26.875 420.732 26.4648V30.4551C419.396 31.0527 417.756 31.3516 415.811 31.3516C413.666 31.3516 412.102 30.8125 411.117 29.7344C410.145 28.6445 409.658 27.0156 409.658 24.8477V15.373H407.092V13.1055L410.045 11.3125L411.592 7.16406H415.02V11.3477H420.521V15.373H415.02V24.8477C415.02 25.6094 415.23 26.1719 415.652 26.5352C416.086 26.8984 416.654 27.0801 417.357 27.0801ZM424.494 6.26758C424.494 4.52148 425.467 3.64844 427.412 3.64844C429.357 3.64844 430.33 4.52148 430.33 6.26758C430.33 7.09961 430.084 7.75 429.592 8.21875C429.111 8.67578 428.385 8.9043 427.412 8.9043C425.467 8.9043 424.494 8.02539 424.494 6.26758ZM430.084 31H424.723V11.3477H430.084V31ZM439.998 21.1387C439.998 23.084 440.314 24.5547 440.947 25.5508C441.592 26.5469 442.635 27.0449 444.076 27.0449C445.506 27.0449 446.531 26.5527 447.152 25.5684C447.785 24.5723 448.102 23.0957 448.102 21.1387C448.102 19.1934 447.785 17.7344 447.152 16.7617C446.52 15.7891 445.482 15.3027 444.041 15.3027C442.611 15.3027 441.58 15.7891 440.947 16.7617C440.314 17.7227 439.998 19.1816 439.998 21.1387ZM453.586 21.1387C453.586 24.3379 452.742 26.8398 451.055 28.6445C449.367 30.4492 447.018 31.3516 444.006 31.3516C442.119 31.3516 440.455 30.9414 439.014 30.1211C437.572 29.2891 436.465 28.0996 435.691 26.5527C434.918 25.0059 434.531 23.2012 434.531 21.1387C434.531 17.9277 435.369 15.4316 437.045 13.6504C438.721 11.8691 441.076 10.9785 444.111 10.9785C445.998 10.9785 447.662 11.3887 449.104 12.209C450.545 13.0293 451.652 14.207 452.426 15.7422C453.199 17.2773 453.586 19.0762 453.586 21.1387ZM476.156 31H470.795V19.5215C470.795 18.1035 470.543 17.043 470.039 16.3398C469.535 15.625 468.732 15.2676 467.631 15.2676C466.131 15.2676 465.047 15.7715 464.379 16.7793C463.711 17.7754 463.377 19.4336 463.377 21.7539V31H458.016V11.3477H462.111L462.832 13.8613H463.131C463.729 12.9121 464.549 12.1973 465.592 11.7168C466.646 11.2246 467.842 10.9785 469.178 10.9785C471.463 10.9785 473.197 11.5996 474.381 12.8418C475.564 14.0723 476.156 15.8535 476.156 18.1855V31Z" fill="#F6F6F6"/>
<path d="M3.23438 31H2.23438V32H3.23438V31ZM3.23438 5.30078V4.30078H2.23438V5.30078H3.23438ZM8.68359 5.30078H9.68359V4.30078H8.68359V5.30078ZM8.68359 31V32H9.68359V31H8.68359ZM4.23438 31V5.30078H2.23438V31H4.23438ZM3.23438 6.30078H8.68359V4.30078H3.23438V6.30078ZM7.68359 5.30078V31H9.68359V5.30078H7.68359ZM8.68359 30H3.23438V32H8.68359V30ZM32.8711 31V32H33.8711V31H32.8711ZM27.5098 31H26.5098V32H27.5098V31ZM26.7539 16.3398L25.9365 16.916L25.9411 16.9224L26.7539 16.3398ZM21.0938 16.7793L21.9243 17.3363L21.9273 17.3318L21.0938 16.7793ZM20.0918 31V32H21.0918V31H20.0918ZM14.7305 31H13.7305V32H14.7305V31ZM14.7305 11.3477V10.3477H13.7305V11.3477H14.7305ZM18.8262 11.3477L19.7874 11.072L19.5797 10.3477H18.8262V11.3477ZM19.5469 13.8613L18.5856 14.1369L18.7933 14.8613H19.5469V13.8613ZM19.8457 13.8613V14.8613H20.3978L20.6919 14.3941L19.8457 13.8613ZM22.3066 11.7168L22.7251 12.6251L22.7295 12.623L22.3066 11.7168ZM31.0957 12.8418L30.3717 13.5316L30.375 13.535L31.0957 12.8418ZM32.8711 30H27.5098V32H32.8711V30ZM28.5098 31V19.5215H26.5098V31H28.5098ZM28.5098 19.5215C28.5098 18.0164 28.248 16.7079 27.5667 15.7573L25.9411 16.9224C26.2676 17.378 26.5098 18.1907 26.5098 19.5215H28.5098ZM27.5712 15.7637C26.8315 14.7143 25.678 14.2676 24.3457 14.2676V16.2676C25.2165 16.2676 25.6685 16.5357 25.9366 16.916L27.5712 15.7637ZM24.3457 14.2676C22.6022 14.2676 21.159 14.8708 20.2602 16.2268L21.9273 17.3318C22.3645 16.6722 23.0892 16.2676 24.3457 16.2676V14.2676ZM20.2632 16.2223C19.4218 17.4771 19.0918 19.391 19.0918 21.7539H21.0918C21.0918 19.4762 21.4298 18.0737 21.9243 17.3362L20.2632 16.2223ZM19.0918 21.7539V31H21.0918V21.7539H19.0918ZM20.0918 30H14.7305V32H20.0918V30ZM15.7305 31V11.3477H13.7305V31H15.7305ZM14.7305 12.3477H18.8262V10.3477H14.7305V12.3477ZM17.8649 11.6233L18.5856 14.1369L20.5081 13.5857L19.7874 11.072L17.8649 11.6233ZM19.5469 14.8613H19.8457V12.8613H19.5469V14.8613ZM20.6919 14.3941C21.1838 13.6129 21.8536 13.0265 22.7251 12.6251L21.8882 10.8085C20.6737 11.368 19.7029 12.2113 18.9995 13.3285L20.6919 14.3941ZM22.7295 12.623C23.6336 12.2011 24.6812 11.9785 25.8926 11.9785V9.97852C24.4321 9.97852 23.0891 10.2481 21.8838 10.8106L22.7295 12.623ZM25.8926 11.9785C27.9987 11.9785 29.4334 12.5469 30.3717 13.5316L31.8197 12.152C30.3908 10.6523 28.3568 9.97852 25.8926 9.97852V11.9785ZM30.375 13.535C31.3222 14.5198 31.8711 16.0157 31.8711 18.1855H33.8711C33.8711 15.6913 33.2364 13.6248 31.8164 12.1486L30.375 13.535ZM31.8711 18.1855V31H33.8711V18.1855H31.8711ZM49.2539 15.373V16.373H50.2539V15.373H49.2539ZM44.6133 15.373V14.373H43.6133V15.373H44.6133ZM44.6133 31V32H45.6133V31H44.6133ZM39.252 31H38.252V32H39.252V31ZM39.252 15.373H40.252V14.373H39.252V15.373ZM36.2988 15.373H35.2988V16.373H36.2988V15.373ZM36.2988 12.7891L35.8602 11.8904L35.2988 12.1644V12.7891H36.2988ZM39.252 11.3477L39.6906 12.2463L40.252 11.9723V11.3477H39.252ZM51.1348 4.28125L52.0791 4.6101L52.3983 3.69355L51.4917 3.34712L51.1348 4.28125ZM49.7637 8.21875L49.463 9.17249L50.3888 9.46432L50.7081 8.5476L49.7637 8.21875ZM45.123 8.39453L45.9181 9.00125L45.9255 8.99123L45.123 8.39453ZM44.6133 11.3477H43.6133V12.3477H44.6133V11.3477ZM49.2539 11.3477H50.2539V10.3477H49.2539V11.3477ZM57.1992 8.21875L57.8884 8.94331L57.8889 8.94289L57.1992 8.21875ZM57.6914 31V32H58.6914V31H57.6914ZM52.3301 31H51.3301V32H52.3301V31ZM52.3301 11.3477V10.3477H51.3301V11.3477H52.3301ZM57.6914 11.3477H58.6914V10.3477H57.6914V11.3477ZM49.2539 14.373H44.6133V16.373H49.2539V14.373ZM43.6133 15.373V31H45.6133V15.373H43.6133ZM44.6133 30H39.252V32H44.6133V30ZM40.252 31V15.373H38.252V31H40.252ZM39.252 14.373H36.2988V16.373H39.252V14.373ZM37.2988 15.373V12.7891H35.2988V15.373H37.2988ZM36.7375 13.6877L39.6906 12.2463L38.8133 10.449L35.8602 11.8904L36.7375 13.6877ZM40.252 11.3477V9.90625H38.252V11.3477H40.252ZM40.252 9.90625C40.252 7.81052 40.7687 6.49873 41.5877 5.73197L40.2209 4.27193C38.8368 5.56767 38.252 7.52542 38.252 9.90625H40.252ZM41.5877 5.73197C42.4192 4.95355 43.8767 4.45508 46.1953 4.45508V2.45508C43.6624 2.45508 41.5925 2.98785 40.2209 4.27193L41.5877 5.73197ZM46.1953 4.45508C47.9486 4.45508 49.4707 4.71589 50.7778 5.21538L51.4917 3.34712C49.9161 2.74505 48.1451 2.45508 46.1953 2.45508V4.45508ZM50.1904 3.9524L48.8193 7.8899L50.7081 8.5476L52.0791 4.6101L50.1904 3.9524ZM50.0643 7.26501C48.911 6.90146 47.8122 6.70898 46.7754 6.70898V8.70898C47.5667 8.70898 48.4601 8.85635 49.463 9.17249L50.0643 7.26501ZM46.7754 6.70898C45.8132 6.70898 44.9089 7.00665 44.3206 7.79783L45.9255 8.99123C46.0169 8.86835 46.2141 8.70898 46.7754 8.70898V6.70898ZM44.3281 7.78786C43.8245 8.44779 43.6133 9.25166 43.6133 10.1172H45.6133C45.6133 9.57647 45.7419 9.2319 45.918 9.0012L44.3281 7.78786ZM43.6133 10.1172V11.3477H45.6133V10.1172H43.6133ZM44.6133 12.3477H49.2539V10.3477H44.6133V12.3477ZM48.2539 11.3477V15.373H50.2539V11.3477H48.2539ZM53.1016 6.26758C53.1016 5.57828 53.2886 5.2363 53.499 5.04741C53.73 4.84007 54.176 4.64844 55.0195 4.64844V2.64844C53.9178 2.64844 52.9047 2.89333 52.1631 3.55904C51.4009 4.2432 51.1016 5.21079 51.1016 6.26758H53.1016ZM55.0195 4.64844C55.8631 4.64844 56.309 4.84007 56.54 5.04741C56.7505 5.2363 56.9375 5.57828 56.9375 6.26758H58.9375C58.9375 5.21079 58.6382 4.2432 57.876 3.55904C57.1343 2.89333 56.1213 2.64844 55.0195 2.64844V4.64844ZM56.9375 6.26758C56.9375 6.89168 56.7605 7.2556 56.5096 7.49461L57.8889 8.94289C58.6223 8.2444 58.9375 7.30754 58.9375 6.26758H56.9375ZM56.51 7.49419C56.2865 7.70682 55.8541 7.9043 55.0195 7.9043V9.9043C56.1302 9.9043 57.151 9.64474 57.8884 8.94331L56.51 7.49419ZM55.0195 7.9043C54.1774 7.9043 53.7325 7.71187 53.5015 7.50316C53.2898 7.31184 53.1016 6.96471 53.1016 6.26758H51.1016C51.1016 7.32826 51.3997 8.29948 52.1606 8.98708C52.9023 9.65727 53.9164 9.9043 55.0195 9.9043V7.9043ZM57.6914 30H52.3301V32H57.6914V30ZM53.3301 31V11.3477H51.3301V31H53.3301ZM52.3301 12.3477H57.6914V10.3477H52.3301V12.3477ZM56.6914 11.3477V31H58.6914V11.3477H56.6914ZM81.457 31V32H82.457V31H81.457ZM76.0957 31H75.0957V32H76.0957V31ZM75.3398 16.3398L74.5225 16.916L74.527 16.9224L75.3398 16.3398ZM69.6797 16.7793L70.5102 17.3363L70.5132 17.3318L69.6797 16.7793ZM68.6777 31V32H69.6777V31H68.6777ZM63.3164 31H62.3164V32H63.3164V31ZM63.3164 11.3477V10.3477H62.3164V11.3477H63.3164ZM67.4121 11.3477L68.3734 11.072L68.1657 10.3477H67.4121V11.3477ZM68.1328 13.8613L67.1715 14.1369L67.3792 14.8613H68.1328V13.8613ZM68.4316 13.8613V14.8613H68.9837L69.2779 14.3941L68.4316 13.8613ZM70.8926 11.7168L71.311 12.6251L71.3155 12.623L70.8926 11.7168ZM79.6816 12.8418L78.9577 13.5316L78.9609 13.535L79.6816 12.8418ZM81.457 30H76.0957V32H81.457V30ZM77.0957 31V19.5215H75.0957V31H77.0957ZM77.0957 19.5215C77.0957 18.0164 76.8339 16.7079 76.1527 15.7573L74.527 16.9224C74.8536 17.378 75.0957 18.1907 75.0957 19.5215H77.0957ZM76.1572 15.7637C75.4174 14.7143 74.2639 14.2676 72.9316 14.2676V16.2676C73.8025 16.2676 74.2544 16.5357 74.5225 16.916L76.1572 15.7637ZM72.9316 14.2676C71.1881 14.2676 69.7449 14.8708 68.8461 16.2268L70.5132 17.3318C70.9504 16.6722 71.6752 16.2676 72.9316 16.2676V14.2676ZM68.8491 16.2223C68.0077 17.4771 67.6777 19.391 67.6777 21.7539H69.6777C69.6777 19.4762 70.0157 18.0737 70.5102 17.3362L68.8491 16.2223ZM67.6777 21.7539V31H69.6777V21.7539H67.6777ZM68.6777 30H63.3164V32H68.6777V30ZM64.3164 31V11.3477H62.3164V31H64.3164ZM63.3164 12.3477H67.4121V10.3477H63.3164V12.3477ZM66.4508 11.6233L67.1715 14.1369L69.0941 13.5857L68.3734 11.072L66.4508 11.6233ZM68.1328 14.8613H68.4316V12.8613H68.1328V14.8613ZM69.2779 14.3941C69.7697 13.6129 70.4396 13.0265 71.311 12.6251L70.4742 10.8085C69.2597 11.368 68.2889 12.2113 67.5854 13.3285L69.2779 14.3941ZM71.3155 12.623C72.2195 12.2011 73.2671 11.9785 74.4785 11.9785V9.97852C73.018 9.97852 71.675 10.2481 70.4697 10.8106L71.3155 12.623ZM74.4785 11.9785C76.5846 11.9785 78.0194 12.5469 78.9577 13.5316L80.4056 12.152C78.9767 10.6523 76.9427 9.97852 74.4785 9.97852V11.9785ZM78.9609 13.535C79.9081 14.5198 80.457 16.0157 80.457 18.1855H82.457C82.457 15.6913 81.8223 13.6248 80.4023 12.1486L78.9609 13.535ZM80.457 18.1855V31H82.457V18.1855H80.457ZM91.8457 8.21875L92.5349 8.94331L92.5354 8.94289L91.8457 8.21875ZM92.3379 31V32H93.3379V31H92.3379ZM86.9766 31H85.9766V32H86.9766V31ZM86.9766 11.3477V10.3477H85.9766V11.3477H86.9766ZM92.3379 11.3477H93.3379V10.3477H92.3379V11.3477ZM87.748 6.26758C87.748 5.57828 87.9351 5.2363 88.1455 5.04741C88.3765 4.84007 88.8224 4.64844 89.666 4.64844V2.64844C88.5643 2.64844 87.5512 2.89333 86.8096 3.55904C86.0473 4.2432 85.748 5.21079 85.748 6.26758H87.748ZM89.666 4.64844C90.5096 4.64844 90.9555 4.84007 91.1865 5.04741C91.397 5.2363 91.584 5.57828 91.584 6.26758H93.584C93.584 5.21079 93.2847 4.2432 92.5225 3.55904C91.7808 2.89333 90.7678 2.64844 89.666 2.64844V4.64844ZM91.584 6.26758C91.584 6.89168 91.407 7.2556 91.156 7.49461L92.5354 8.94289C93.2688 8.2444 93.584 7.30754 93.584 6.26758H91.584ZM91.1565 7.49419C90.933 7.70682 90.5006 7.9043 89.666 7.9043V9.9043C90.7767 9.9043 91.7975 9.64474 92.5349 8.94331L91.1565 7.49419ZM89.666 7.9043C88.8239 7.9043 88.379 7.71187 88.148 7.50316C87.9363 7.31184 87.748 6.96471 87.748 6.26758H85.748C85.748 7.32826 86.0462 8.29948 86.8071 8.98708C87.5488 9.65727 88.5628 9.9043 89.666 9.9043V7.9043ZM92.3379 30H86.9766V32H92.3379V30ZM87.9766 31V11.3477H85.9766V31H87.9766ZM86.9766 12.3477H92.3379V10.3477H86.9766V12.3477ZM91.3379 11.3477V31H93.3379V11.3477H91.3379ZM109.635 26.4648H110.635V25.1047L109.336 25.5104L109.635 26.4648ZM109.635 30.4551L110.043 31.3679L110.635 31.1032V30.4551H109.635ZM100.02 29.7344L99.2734 30.4003L99.281 30.4086L100.02 29.7344ZM98.5605 15.373H99.5605V14.373H98.5605V15.373ZM95.9941 15.373H94.9941V16.373H95.9941V15.373ZM95.9941 13.1055L95.4752 12.2507L94.9941 12.5427V13.1055H95.9941ZM98.9473 11.3125L99.4662 12.1673L99.763 11.9871L99.8842 11.6619L98.9473 11.3125ZM100.494 7.16406V6.16406H99.7998L99.5572 6.81468L100.494 7.16406ZM103.922 7.16406H104.922V6.16406H103.922V7.16406ZM103.922 11.3477H102.922V12.3477H103.922V11.3477ZM109.424 11.3477H110.424V10.3477H109.424V11.3477ZM109.424 15.373V16.373H110.424V15.373H109.424ZM103.922 15.373V14.373H102.922V15.373H103.922ZM104.555 26.5352L103.902 27.293L103.912 27.3017L104.555 26.5352ZM106.26 28.0801C107.334 28.0801 108.565 27.8469 109.933 27.4193L109.336 25.5104C108.08 25.9031 107.061 26.0801 106.26 26.0801V28.0801ZM108.635 26.4648V30.4551H110.635V26.4648H108.635ZM109.226 29.5423C108.054 30.0668 106.561 30.3516 104.713 30.3516V32.3516C106.755 32.3516 108.544 32.0386 110.043 31.3679L109.226 29.5423ZM104.713 30.3516C102.716 30.3516 101.479 29.8494 100.758 29.0601L99.281 30.4086C100.529 31.7756 102.421 32.3516 104.713 32.3516V30.3516ZM100.766 29.0685C100.02 28.2331 99.5605 26.8861 99.5605 24.8477H97.5605C97.5605 27.1452 98.0737 29.0559 99.2735 30.4002L100.766 29.0685ZM99.5605 24.8477V15.373H97.5605V24.8477H99.5605ZM98.5605 14.373H95.9941V16.373H98.5605V14.373ZM96.9941 15.373V13.1055H94.9941V15.373H96.9941ZM96.5131 13.9603L99.4662 12.1673L98.4283 10.4577L95.4752 12.2507L96.5131 13.9603ZM99.8842 11.6619L101.431 7.51344L99.5572 6.81468L98.0103 10.9631L99.8842 11.6619ZM100.494 8.16406H103.922V6.16406H100.494V8.16406ZM102.922 7.16406V11.3477H104.922V7.16406H102.922ZM103.922 12.3477H109.424V10.3477H103.922V12.3477ZM108.424 11.3477V15.373H110.424V11.3477H108.424ZM109.424 14.373H103.922V16.373H109.424V14.373ZM102.922 15.373V24.8477H104.922V15.373H102.922ZM102.922 24.8477C102.922 25.7881 103.187 26.6769 103.902 27.2929L105.207 25.7774C105.079 25.6669 104.922 25.4307 104.922 24.8477H102.922ZM103.912 27.3017C104.567 27.8497 105.381 28.0801 106.26 28.0801V26.0801C105.733 26.0801 105.41 25.9472 105.197 25.7686L103.912 27.3017ZM119.092 15.8828L119.835 16.5525L119.84 16.5464L119.092 15.8828ZM117.984 18.9414L116.987 18.8708L116.911 19.9414H117.984V18.9414ZM125.508 18.9414V19.9414H126.526L126.508 18.9237L125.508 18.9414ZM124.471 15.8828L123.735 16.5596L123.74 16.5656L124.471 15.8828ZM114.891 13.6855L114.153 13.0103L114.153 13.0105L114.891 13.6855ZM130.535 22.5098V23.5098H131.535V22.5098H130.535ZM117.861 22.5098V21.5098H116.822L116.862 22.5482L117.861 22.5098ZM129.428 25.8145H130.428V24.2404L129.003 24.9092L129.428 25.8145ZM129.428 29.9629L129.875 30.8573L130.428 30.5809V29.9629H129.428ZM126.422 31L126.217 30.0211L126.207 30.0233L126.422 31ZM121.764 13.793C120.395 13.793 119.211 14.2416 118.344 15.2192L119.84 16.5464C120.262 16.0709 120.859 15.793 121.764 15.793V13.793ZM118.349 15.2132C117.508 16.1465 117.09 17.4073 116.987 18.8708L118.982 19.012C119.066 17.8271 119.387 17.0488 119.834 16.5524L118.349 15.2132ZM117.984 19.9414H125.508V17.9414H117.984V19.9414ZM126.508 18.9237C126.481 17.4407 126.09 16.1513 125.201 15.2001L123.74 16.5656C124.187 17.044 124.487 17.7937 124.508 18.9591L126.508 18.9237ZM125.207 15.206C124.32 14.2415 123.134 13.793 121.764 13.793V15.793C122.667 15.793 123.285 16.071 123.735 16.5596L125.207 15.206ZM122.52 30.3516C119.544 30.3516 117.349 29.5354 115.802 28.0183L114.402 29.4465C116.416 31.4217 119.167 32.3516 122.52 32.3516V30.3516ZM115.802 28.0183C114.263 26.5096 113.43 24.3248 113.43 21.3145H111.43C111.43 24.7026 112.378 27.463 114.402 29.4465L115.802 28.0183ZM113.43 21.3145C113.43 18.1815 114.209 15.9122 115.628 14.3606L114.153 13.0105C112.291 15.0448 111.43 17.8615 111.43 21.3145H113.43ZM115.628 14.3608C117.056 12.8019 119.045 11.9785 121.729 11.9785V9.97852C118.599 9.97852 116.03 10.9599 114.153 13.0103L115.628 14.3608ZM121.729 11.9785C124.309 11.9785 126.186 12.7075 127.5 14.0507L128.93 12.6524C127.149 10.8316 124.702 9.97852 121.729 9.97852V11.9785ZM127.5 14.0507C128.819 15.4003 129.535 17.309 129.535 19.9082H131.535C131.535 16.9293 130.704 14.4669 128.93 12.6524L127.5 14.0507ZM129.535 19.9082V22.5098H131.535V19.9082H129.535ZM130.535 21.5098H117.861V23.5098H130.535V21.5098ZM116.862 22.5482C116.928 24.2515 117.441 25.7032 118.503 26.7803L119.927 25.3759C119.302 24.7421 118.912 23.8149 118.861 22.4713L116.862 22.5482ZM118.503 26.7803C119.582 27.8741 121.05 28.3613 122.766 28.3613V26.3613C121.434 26.3613 120.536 25.9931 119.927 25.3759L118.503 26.7803ZM122.766 28.3613C124.019 28.3613 125.215 28.231 126.35 27.966L125.896 26.0183C124.922 26.2455 123.88 26.3613 122.766 26.3613V28.3613ZM126.35 27.966C127.483 27.7016 128.651 27.2836 129.853 26.7197L129.003 24.9092C127.907 25.4235 126.872 25.7906 125.896 26.0183L126.35 27.966ZM128.428 25.8145V29.9629H130.428V25.8145H128.428ZM128.981 29.0685C128.123 29.4972 127.203 29.8153 126.217 30.0211L126.626 31.9789C127.774 31.7393 128.857 31.366 129.875 30.8573L128.981 29.0685ZM126.207 30.0233C125.233 30.2374 124.009 30.3516 122.52 30.3516V32.3516C124.1 32.3516 125.478 32.2314 126.637 31.9767L126.207 30.0233ZM157.324 29.3477L156.701 28.5657L156.698 28.5679L157.324 29.3477ZM143.086 29.8047H142.086V30.4289L142.647 30.7031L143.086 29.8047ZM143.086 24.7422L143.493 23.8289L142.086 23.2013V24.7422H143.086ZM147.48 26.377L147.225 27.3437L147.227 27.3443L147.48 26.377ZM153.527 26.166L152.949 25.3503L152.942 25.3553L153.527 26.166ZM154.072 22.791L153.255 23.3678L153.264 23.3792L154.072 22.791ZM152.824 21.6484L152.265 22.4777L152.274 22.4832L152.824 21.6484ZM149.502 19.9082L149.931 19.0051L149.927 19.0032L149.502 19.9082ZM145.688 6.88281L145.044 6.11745L145.041 6.11987L145.688 6.88281ZM155.9 5.40625L155.647 6.37357L155.649 6.37416L155.9 5.40625ZM159.715 6.74219L160.638 7.12544L161.016 6.21631L160.113 5.82473L159.715 6.74219ZM157.957 10.9785L157.577 11.9037L158.499 12.2817L158.881 11.3618L157.957 10.9785ZM154.547 9.80078L154.304 10.7709L154.307 10.7717L154.547 9.80078ZM149.045 13.334L148.192 13.8565L148.196 13.8628L148.2 13.869L149.045 13.334ZM150.1 14.3711L149.522 15.1875L149.533 15.1955L149.545 15.2031L150.1 14.3711ZM153.562 16.1641L153.994 15.2619L153.993 15.2616L153.562 16.1641ZM158.502 19.627L157.709 20.2359L157.712 20.2398L158.502 19.627ZM158.838 23.8633C158.838 25.9081 158.117 27.4368 156.701 28.5657L157.948 30.1296C159.883 28.5866 160.838 26.4591 160.838 23.8633H158.838ZM156.698 28.5679C155.27 29.7143 153.201 30.3516 150.363 30.3516V32.3516C153.479 32.3516 156.05 31.6529 157.95 30.1275L156.698 28.5679ZM150.363 30.3516C147.748 30.3516 145.477 29.8603 143.525 28.9063L142.647 30.7031C144.914 31.8115 147.494 32.3516 150.363 32.3516V30.3516ZM144.086 29.8047V24.7422H142.086V29.8047H144.086ZM142.679 25.6555C144.439 26.4405 145.958 27.0083 147.225 27.3437L147.736 25.4102C146.613 25.1128 145.202 24.5907 143.493 23.8289L142.679 25.6555ZM147.227 27.3443C148.497 27.6772 149.685 27.8516 150.785 27.8516V25.8516C149.893 25.8516 148.878 25.7095 147.734 25.4096L147.227 27.3443ZM150.785 27.8516C152.086 27.8516 153.241 27.6065 154.113 26.9767L152.942 25.3553C152.548 25.6396 151.875 25.8516 150.785 25.8516V27.8516ZM154.106 26.9817C155.055 26.3085 155.494 25.3004 155.494 24.127H153.494C153.494 24.7582 153.288 25.1095 152.949 25.3503L154.106 26.9817ZM155.494 24.127C155.494 23.4238 155.293 22.77 154.881 22.2028L153.264 23.3792C153.414 23.5855 153.494 23.8223 153.494 24.127H155.494ZM154.889 22.2143C154.516 21.685 153.995 21.2229 153.375 20.8137L152.274 22.4832C152.755 22.8005 153.066 23.1002 153.255 23.3677L154.889 22.2143ZM153.383 20.8192C152.773 20.4077 151.598 19.7978 149.931 19.0051L149.073 20.8113C150.757 21.6124 151.798 22.1626 152.265 22.4777L153.383 20.8192ZM149.927 19.0032C148.392 18.2816 147.308 17.6183 146.623 17.0252L145.314 18.5373C146.199 19.3035 147.471 20.0583 149.076 20.8132L149.927 19.0032ZM146.623 17.0252C145.932 16.4265 145.385 15.7349 144.975 14.9472L143.2 15.8692C143.729 16.8861 144.436 17.7767 145.314 18.5373L146.623 17.0252ZM144.975 14.9472C144.593 14.2116 144.385 13.3206 144.385 12.2441H142.385C142.385 13.5818 142.645 14.8001 143.2 15.8692L144.975 14.9472ZM144.385 12.2441C144.385 10.2218 145.054 8.73052 146.334 7.64576L145.041 6.11987C143.251 7.63666 142.385 9.71956 142.385 12.2441H144.385ZM146.331 7.64817C147.644 6.54428 149.521 5.93164 152.086 5.93164V3.93164C149.213 3.93164 146.825 4.61978 145.044 6.11745L146.331 7.64817ZM152.086 5.93164C153.342 5.93164 154.528 6.08033 155.647 6.37357L156.154 4.43893C154.859 4.09935 153.501 3.93164 152.086 3.93164V5.93164ZM155.649 6.37416C156.811 6.67585 158.034 7.1031 159.317 7.65964L160.113 5.82473C158.748 5.23284 157.427 4.76946 156.152 4.43834L155.649 6.37416ZM158.791 6.35893L157.033 10.5953L158.881 11.3618L160.638 7.12544L158.791 6.35893ZM158.337 10.0533C156.943 9.48176 155.756 9.06913 154.786 8.8299L154.307 10.7717C155.142 10.9777 156.229 11.3503 157.577 11.9037L158.337 10.0533ZM154.789 8.83064C153.824 8.58931 152.864 8.4668 151.91 8.4668V10.4668C152.691 10.4668 153.488 10.5669 154.304 10.7709L154.789 8.83064ZM151.91 8.4668C150.736 8.4668 149.675 8.73997 148.88 9.43393L150.194 10.9411C150.501 10.6741 151.022 10.4668 151.91 10.4668V8.4668ZM148.88 9.43393C148.097 10.1165 147.711 11.0251 147.711 12.0684H149.711C149.711 11.5647 149.875 11.2194 150.194 10.9411L148.88 9.43393ZM147.711 12.0684C147.711 12.7091 147.861 13.3166 148.192 13.8565L149.898 12.8114C149.783 12.6248 149.711 12.3885 149.711 12.0684H147.711ZM148.2 13.869C148.515 14.3666 148.976 14.8011 149.522 15.1875L150.677 13.5547C150.262 13.2614 150.02 13.0045 149.89 12.7989L148.2 13.869ZM149.545 15.2031C150.108 15.5786 151.332 16.2074 153.132 17.0665L153.993 15.2616C152.16 14.3864 151.075 13.8198 150.654 13.539L149.545 15.2031ZM153.131 17.0663C155.49 18.1939 156.964 19.2652 157.709 20.2359L159.295 19.018C158.259 17.6684 156.44 16.4311 153.994 15.2619L153.131 17.0663ZM157.712 20.2398C158.446 21.1867 158.838 22.3739 158.838 23.8633H160.838C160.838 22.0011 160.339 20.364 159.292 19.0141L157.712 20.2398ZM169.541 15.8828L170.284 16.5525L170.289 16.5464L169.541 15.8828ZM168.434 18.9414L167.436 18.8708L167.36 19.9414H168.434V18.9414ZM175.957 18.9414V19.9414H176.975L176.957 18.9237L175.957 18.9414ZM174.92 15.8828L174.184 16.5596L174.189 16.5656L174.92 15.8828ZM165.34 13.6855L164.602 13.0103L164.602 13.0105L165.34 13.6855ZM180.984 22.5098V23.5098H181.984V22.5098H180.984ZM168.311 22.5098V21.5098H167.271L167.311 22.5482L168.311 22.5098ZM179.877 25.8145H180.877V24.2404L179.452 24.9092L179.877 25.8145ZM179.877 29.9629L180.324 30.8573L180.877 30.5809V29.9629H179.877ZM176.871 31L176.667 30.0211L176.656 30.0233L176.871 31ZM172.213 13.793C170.844 13.793 169.66 14.2416 168.793 15.2192L170.289 16.5464C170.711 16.0709 171.309 15.793 172.213 15.793V13.793ZM168.798 15.2132C167.957 16.1465 167.54 17.4073 167.436 18.8708L169.431 19.012C169.515 17.8271 169.836 17.0488 170.284 16.5524L168.798 15.2132ZM168.434 19.9414H175.957V17.9414H168.434V19.9414ZM176.957 18.9237C176.931 17.4407 176.539 16.1513 175.651 15.2001L174.189 16.5656C174.636 17.044 174.937 17.7937 174.957 18.9591L176.957 18.9237ZM175.656 15.206C174.769 14.2415 173.583 13.793 172.213 13.793V15.793C173.116 15.793 173.735 16.071 174.184 16.5596L175.656 15.206ZM172.969 30.3516C169.993 30.3516 167.798 29.5354 166.251 28.0183L164.851 29.4465C166.866 31.4217 169.617 32.3516 172.969 32.3516V30.3516ZM166.251 28.0183C164.712 26.5096 163.879 24.3248 163.879 21.3145H161.879C161.879 24.7026 162.827 27.463 164.851 29.4465L166.251 28.0183ZM163.879 21.3145C163.879 18.1815 164.658 15.9122 166.078 14.3606L164.602 13.0105C162.741 15.0448 161.879 17.8615 161.879 21.3145H163.879ZM166.077 14.3608C167.505 12.8019 169.495 11.9785 172.178 11.9785V9.97852C169.048 9.97852 166.48 10.9599 164.602 13.0103L166.077 14.3608ZM172.178 11.9785C174.759 11.9785 176.636 12.7075 177.949 14.0507L179.379 12.6524C177.599 10.8316 175.151 9.97852 172.178 9.97852V11.9785ZM177.949 14.0507C179.269 15.4003 179.984 17.309 179.984 19.9082H181.984C181.984 16.9293 181.153 14.4669 179.379 12.6524L177.949 14.0507ZM179.984 19.9082V22.5098H181.984V19.9082H179.984ZM180.984 21.5098H168.311V23.5098H180.984V21.5098ZM167.311 22.5482C167.377 24.2515 167.89 25.7032 168.952 26.7803L170.376 25.3759C169.751 24.7421 169.361 23.8149 169.31 22.4713L167.311 22.5482ZM168.952 26.7803C170.031 27.8741 171.499 28.3613 173.215 28.3613V26.3613C171.883 26.3613 170.985 25.9931 170.376 25.3759L168.952 26.7803ZM173.215 28.3613C174.468 28.3613 175.664 28.231 176.799 27.966L176.345 26.0183C175.371 26.2455 174.329 26.3613 173.215 26.3613V28.3613ZM176.799 27.966C177.933 27.7016 179.101 27.2836 180.302 26.7197L179.452 24.9092C178.356 25.4235 177.321 25.7906 176.345 26.0183L176.799 27.966ZM178.877 25.8145V29.9629H180.877V25.8145H178.877ZM179.43 29.0685C178.572 29.4972 177.652 29.8153 176.667 30.0211L177.075 31.9789C178.223 31.7393 179.307 31.366 180.324 30.8573L179.43 29.0685ZM176.656 30.0233C175.683 30.2374 174.458 30.3516 172.969 30.3516V32.3516C174.549 32.3516 175.927 32.2314 177.086 31.9767L176.656 30.0233ZM202.939 31V32H203.939V31H202.939ZM197.578 31H196.578V32H197.578V31ZM196.857 16.3398L196.021 16.8882L196.026 16.8962L196.032 16.904L196.857 16.3398ZM190.705 31V32H191.705V31H190.705ZM185.344 31H184.344V32H185.344V31ZM185.344 11.3477V10.3477H184.344V11.3477H185.344ZM189.439 11.3477L190.401 11.072L190.193 10.3477H189.439V11.3477ZM190.16 13.8613L189.199 14.1369L189.407 14.8613H190.16V13.8613ZM190.459 13.8613V14.8613H191.033L191.322 14.3659L190.459 13.8613ZM192.744 11.752L193.196 12.6443L193.204 12.64L192.744 11.752ZM202.148 13.8613L201.27 14.3383L201.553 14.8613H202.148V13.8613ZM202.623 13.8613V14.8613H203.201L203.489 14.3611L202.623 13.8613ZM204.943 11.7344L204.504 10.8359L204.5 10.8379L204.943 11.7344ZM213.469 12.7012L212.758 13.4047L212.765 13.4119L213.469 12.7012ZM215.191 31V32H216.191V31H215.191ZM209.812 31H208.812V32H209.812V31ZM209.092 16.3398L208.256 16.8882L208.261 16.8962L208.266 16.904L209.092 16.3398ZM203.906 16.6738L203.087 16.1003L203.082 16.1073L203.906 16.6738ZM202.939 30H197.578V32H202.939V30ZM198.578 31V19.5215H196.578V31H198.578ZM198.578 19.5215C198.578 18.0229 198.33 16.7226 197.683 15.7757L196.032 16.904C196.346 17.3634 196.578 18.1842 196.578 19.5215H198.578ZM197.694 15.7915C197.002 14.7374 195.907 14.2676 194.625 14.2676V16.2676C195.382 16.2676 195.775 16.5126 196.021 16.8882L197.694 15.7915ZM194.625 14.2676C192.972 14.2676 191.62 14.9002 190.785 16.2546L192.488 17.3039C192.895 16.6428 193.536 16.2676 194.625 16.2676V14.2676ZM190.785 16.2546C190.012 17.5102 189.705 19.4062 189.705 21.7539H191.705C191.705 19.4844 192.02 18.064 192.488 17.3039L190.785 16.2546ZM189.705 21.7539V31H191.705V21.7539H189.705ZM190.705 30H185.344V32H190.705V30ZM186.344 31V11.3477H184.344V31H186.344ZM185.344 12.3477H189.439V10.3477H185.344V12.3477ZM188.478 11.6233L189.199 14.1369L191.121 13.5857L190.401 11.072L188.478 11.6233ZM190.16 14.8613H190.459V12.8613H190.16V14.8613ZM191.322 14.3659C191.746 13.6412 192.359 13.0675 193.196 12.6443L192.293 10.8596C191.137 11.4443 190.227 12.2767 189.596 13.3568L191.322 14.3659ZM193.204 12.64C194.038 12.2082 195.019 11.9785 196.172 11.9785V9.97852C194.747 9.97852 193.442 10.2644 192.284 10.8639L193.204 12.64ZM196.172 11.9785C198.892 11.9785 200.461 12.849 201.27 14.3383L203.027 13.3844C201.75 11.0299 199.335 9.97852 196.172 9.97852V11.9785ZM202.148 14.8613H202.623V12.8613H202.148V14.8613ZM203.489 14.3611C203.91 13.6316 204.53 13.0543 205.386 12.6309L204.5 10.8379C203.318 11.4222 202.391 12.263 201.757 13.3616L203.489 14.3611ZM205.382 12.6328C206.261 12.2036 207.268 11.9785 208.424 11.9785V9.97852C207.001 9.97852 205.688 10.2574 204.504 10.8359L205.382 12.6328ZM208.424 11.9785C210.487 11.9785 211.871 12.5085 212.758 13.4046L214.179 11.9977C212.793 10.597 210.814 9.97852 208.424 9.97852V11.9785ZM212.765 13.4119C213.641 14.2786 214.191 15.7875 214.191 18.1855H216.191C216.191 15.5445 215.593 13.3972 214.172 11.9904L212.765 13.4119ZM214.191 18.1855V31H216.191V18.1855H214.191ZM215.191 30H209.812V32H215.191V30ZM210.812 31V19.5215H208.812V31H210.812ZM210.812 19.5215C210.812 18.0229 210.564 16.7226 209.917 15.7757L208.266 16.904C208.58 17.3634 208.812 18.1842 208.812 19.5215H210.812ZM209.928 15.7915C209.237 14.7374 208.141 14.2676 206.859 14.2676V16.2676C207.617 16.2676 208.009 16.5126 208.256 16.8882L209.928 15.7915ZM206.859 14.2676C205.276 14.2676 203.96 14.8532 203.087 16.1004L204.725 17.2473C205.165 16.6195 205.818 16.2676 206.859 16.2676V14.2676ZM203.082 16.1073C202.263 17.2982 201.939 19.0372 201.939 21.1387H203.939C203.939 19.162 204.26 17.9245 204.73 17.2404L203.082 16.1073ZM201.939 21.1387V31H203.939V21.1387H201.939ZM233.191 31L232.259 31.3619L232.507 32H233.191V31ZM232.154 28.3281L233.087 27.9663L232.839 27.3281H232.154V28.3281ZM232.014 28.3281V27.3281H231.531L231.23 27.7064L232.014 28.3281ZM229.219 30.7012L229.634 31.6108L229.639 31.6085L229.219 30.7012ZM221.027 29.7344L220.32 30.4415L220.324 30.4453L221.027 29.7344ZM221.59 20.5234L222.151 21.3514L222.152 21.3504L221.59 20.5234ZM228.199 18.8711L228.168 17.8716L228.163 17.8717L228.199 18.8711ZM231.609 18.7656L231.64 19.7651L232.609 19.7352V18.7656H231.609ZM223.014 16.3398L222.116 16.7801L222.541 17.647L223.422 17.2526L223.014 16.3398ZM221.238 12.7188L220.775 11.8327L219.912 12.2844L220.34 13.159L221.238 12.7188ZM236.936 31V32H237.936V31H236.936ZM231.609 21.8945H232.609V20.8601L231.575 20.8951L231.609 21.8945ZM229.535 21.9648L229.565 22.9644L229.569 22.9643L229.535 21.9648ZM230.484 26.3594L229.794 25.6355L229.789 25.641L230.484 26.3594ZM234.124 30.6381L233.087 27.9663L231.222 28.69L232.259 31.3619L234.124 30.6381ZM232.154 27.3281H232.014V29.3281H232.154V27.3281ZM231.23 27.7064C230.391 28.7638 229.575 29.4338 228.798 29.7939L229.639 31.6085C230.784 31.0779 231.832 30.1659 232.797 28.9499L231.23 27.7064ZM228.803 29.7916C228.031 30.1443 226.946 30.3516 225.492 30.3516V32.3516C227.109 32.3516 228.508 32.1252 229.634 31.6108L228.803 29.7916ZM225.492 30.3516C223.804 30.3516 222.592 29.8755 221.731 29.0235L220.324 30.4453C221.642 31.7495 223.407 32.3516 225.492 32.3516V30.3516ZM221.734 29.0273C220.896 28.1891 220.41 26.9405 220.41 25.1289H218.41C218.41 27.3017 219.002 29.1234 220.32 30.4415L221.734 29.0273ZM220.41 25.1289C220.41 23.3029 221.027 22.1127 222.151 21.3514L221.029 19.6955C219.247 20.9029 218.41 22.7831 218.41 25.1289H220.41ZM222.152 21.3504C223.389 20.509 225.37 19.9732 228.235 19.8705L228.163 17.8717C225.145 17.98 222.72 18.5457 221.028 19.6965L222.152 21.3504ZM228.23 19.8706L231.64 19.7651L231.578 17.7661L228.168 17.8716L228.23 19.8706ZM232.609 18.7656V17.9043H230.609V18.7656H232.609ZM232.609 17.9043C232.609 16.7481 232.312 15.6986 231.544 14.9478C230.779 14.2012 229.719 13.916 228.551 13.916V15.916C229.422 15.916 229.891 16.1289 230.146 16.3784C230.397 16.6237 230.609 17.0683 230.609 17.9043H232.609ZM228.551 13.916C226.789 13.916 224.798 14.4456 222.605 15.4271L223.422 17.2526C225.471 16.3357 227.172 15.916 228.551 15.916V13.916ZM223.912 15.8996L222.136 12.2785L220.34 13.159L222.116 16.7801L223.912 15.8996ZM221.702 13.6048C223.809 12.5019 226.156 11.9434 228.762 11.9434V9.94336C225.859 9.94336 223.191 10.5684 220.775 11.8327L221.702 13.6048ZM228.762 11.9434C231.269 11.9434 233.031 12.4913 234.194 13.4405L235.459 11.8915C233.809 10.5439 231.528 9.94336 228.762 9.94336V11.9434ZM234.194 13.4405C235.303 14.3465 235.936 15.7664 235.936 17.9043H237.936C237.936 15.3547 237.162 13.2824 235.459 11.8915L234.194 13.4405ZM235.936 17.9043V31H237.936V17.9043H235.936ZM236.936 30H233.191V32H236.936V30ZM231.575 20.8951L229.501 20.9654L229.569 22.9643L231.643 22.894L231.575 20.8951ZM229.505 20.9653C227.874 21.0144 226.488 21.308 225.494 21.9805L226.615 23.6367C227.145 23.278 228.079 23.0091 229.565 22.9644L229.505 20.9653ZM225.494 21.9805C224.414 22.7117 223.912 23.8341 223.912 25.1641H225.912C225.912 24.3847 226.172 23.9367 226.615 23.6367L225.494 21.9805ZM223.912 25.1641C223.912 26.1125 224.191 26.9954 224.905 27.6186C225.594 28.2188 226.523 28.4316 227.514 28.4316V26.4316C226.769 26.4316 226.398 26.2665 226.22 26.1109C226.067 25.9782 225.912 25.7273 225.912 25.1641H223.912ZM227.514 28.4316C228.958 28.4316 230.218 28.0097 231.18 27.0778L229.789 25.641C229.275 26.1387 228.554 26.4316 227.514 26.4316V28.4316ZM231.174 27.0832C232.151 26.1521 232.609 24.9262 232.609 23.5117H230.609C230.609 24.4644 230.318 25.1369 229.794 25.6355L231.174 27.0832ZM232.609 23.5117V21.8945H230.609V23.5117H232.609ZM260.613 31V32H261.613V31H260.613ZM255.252 31H254.252V32H255.252V31ZM254.496 16.3398L253.679 16.916L253.683 16.9224L254.496 16.3398ZM248.836 16.7793L249.666 17.3363L249.669 17.3318L248.836 16.7793ZM247.834 31V32H248.834V31H247.834ZM242.473 31H241.473V32H242.473V31ZM242.473 11.3477V10.3477H241.473V11.3477H242.473ZM246.568 11.3477L247.53 11.072L247.322 10.3477H246.568V11.3477ZM247.289 13.8613L246.328 14.1369L246.535 14.8613H247.289V13.8613ZM247.588 13.8613V14.8613H248.14L248.434 14.3941L247.588 13.8613ZM250.049 11.7168L250.467 12.6251L250.472 12.623L250.049 11.7168ZM258.838 12.8418L258.114 13.5316L258.117 13.535L258.838 12.8418ZM260.613 30H255.252V32H260.613V30ZM256.252 31V19.5215H254.252V31H256.252ZM256.252 19.5215C256.252 18.0164 255.99 16.7079 255.309 15.7573L253.683 16.9224C254.01 17.378 254.252 18.1907 254.252 19.5215H256.252ZM255.313 15.7637C254.574 14.7143 253.42 14.2676 252.088 14.2676V16.2676C252.959 16.2676 253.411 16.5357 253.679 16.916L255.313 15.7637ZM252.088 14.2676C250.344 14.2676 248.901 14.8708 248.002 16.2268L249.669 17.3318C250.107 16.6722 250.831 16.2676 252.088 16.2676V14.2676ZM248.005 16.2223C247.164 17.4771 246.834 19.391 246.834 21.7539H248.834C248.834 19.4762 249.172 18.0737 249.666 17.3362L248.005 16.2223ZM246.834 21.7539V31H248.834V21.7539H246.834ZM247.834 30H242.473V32H247.834V30ZM243.473 31V11.3477H241.473V31H243.473ZM242.473 12.3477H246.568V10.3477H242.473V12.3477ZM245.607 11.6233L246.328 14.1369L248.25 13.5857L247.53 11.072L245.607 11.6233ZM247.289 14.8613H247.588V12.8613H247.289V14.8613ZM248.434 14.3941C248.926 13.6129 249.596 13.0265 250.467 12.6251L249.63 10.8085C248.416 11.368 247.445 12.2113 246.742 13.3285L248.434 14.3941ZM250.472 12.623C251.376 12.2011 252.423 11.9785 253.635 11.9785V9.97852C252.174 9.97852 250.831 10.2481 249.626 10.8106L250.472 12.623ZM253.635 11.9785C255.741 11.9785 257.176 12.5469 258.114 13.5316L259.562 12.152C258.133 10.6523 256.099 9.97852 253.635 9.97852V11.9785ZM258.117 13.535C259.064 14.5198 259.613 16.0157 259.613 18.1855H261.613C261.613 15.6913 260.979 13.6248 259.559 12.1486L258.117 13.535ZM259.613 18.1855V31H261.613V18.1855H259.613ZM277.787 26.4648H278.787V25.1047L277.489 25.5104L277.787 26.4648ZM277.787 30.4551L278.195 31.3679L278.787 31.1032V30.4551H277.787ZM268.172 29.7344L267.426 30.4003L267.433 30.4086L268.172 29.7344ZM266.713 15.373H267.713V14.373H266.713V15.373ZM264.146 15.373H263.146V16.373H264.146V15.373ZM264.146 13.1055L263.628 12.2507L263.146 12.5427V13.1055H264.146ZM267.1 11.3125L267.619 12.1673L267.915 11.9871L268.037 11.6619L267.1 11.3125ZM268.646 7.16406V6.16406H267.952L267.71 6.81468L268.646 7.16406ZM272.074 7.16406H273.074V6.16406H272.074V7.16406ZM272.074 11.3477H271.074V12.3477H272.074V11.3477ZM277.576 11.3477H278.576V10.3477H277.576V11.3477ZM277.576 15.373V16.373H278.576V15.373H277.576ZM272.074 15.373V14.373H271.074V15.373H272.074ZM272.707 26.5352L272.054 27.293L272.065 27.3017L272.707 26.5352ZM274.412 28.0801C275.486 28.0801 276.717 27.8469 278.085 27.4193L277.489 25.5104C276.232 25.9031 275.213 26.0801 274.412 26.0801V28.0801ZM276.787 26.4648V30.4551H278.787V26.4648H276.787ZM277.379 29.5423C276.206 30.0668 274.714 30.3516 272.865 30.3516V32.3516C274.907 32.3516 276.696 32.0386 278.195 31.3679L277.379 29.5423ZM272.865 30.3516C270.869 30.3516 269.631 29.8494 268.91 29.0601L267.433 30.4086C268.681 31.7756 270.573 32.3516 272.865 32.3516V30.3516ZM268.918 29.0685C268.172 28.2331 267.713 26.8861 267.713 24.8477H265.713C265.713 27.1452 266.226 29.0559 267.426 30.4002L268.918 29.0685ZM267.713 24.8477V15.373H265.713V24.8477H267.713ZM266.713 14.373H264.146V16.373H266.713V14.373ZM265.146 15.373V13.1055H263.146V15.373H265.146ZM264.665 13.9603L267.619 12.1673L266.581 10.4577L263.628 12.2507L264.665 13.9603ZM268.037 11.6619L269.583 7.51344L267.71 6.81468L266.163 10.9631L268.037 11.6619ZM268.646 8.16406H272.074V6.16406H268.646V8.16406ZM271.074 7.16406V11.3477H273.074V7.16406H271.074ZM272.074 12.3477H277.576V10.3477H272.074V12.3477ZM276.576 11.3477V15.373H278.576V11.3477H276.576ZM277.576 14.373H272.074V16.373H277.576V14.373ZM271.074 15.373V24.8477H273.074V15.373H271.074ZM271.074 24.8477C271.074 25.7881 271.339 26.6769 272.055 27.2929L273.36 25.7774C273.231 25.6669 273.074 25.4307 273.074 24.8477H271.074ZM272.065 27.3017C272.719 27.8497 273.533 28.0801 274.412 28.0801V26.0801C273.885 26.0801 273.562 25.9472 273.349 25.7686L272.065 27.3017ZM286.646 8.21875L287.336 8.94331L287.336 8.94289L286.646 8.21875ZM287.139 31V32H288.139V31H287.139ZM281.777 31H280.777V32H281.777V31ZM281.777 11.3477V10.3477H280.777V11.3477H281.777ZM287.139 11.3477H288.139V10.3477H287.139V11.3477ZM282.549 6.26758C282.549 5.57828 282.736 5.2363 282.946 5.04741C283.177 4.84007 283.623 4.64844 284.467 4.64844V2.64844C283.365 2.64844 282.352 2.89333 281.61 3.55904C280.848 4.2432 280.549 5.21079 280.549 6.26758H282.549ZM284.467 4.64844C285.31 4.64844 285.756 4.84007 285.987 5.04741C286.198 5.2363 286.385 5.57828 286.385 6.26758H288.385C288.385 5.21079 288.085 4.2432 287.323 3.55904C286.582 2.89333 285.569 2.64844 284.467 2.64844V4.64844ZM286.385 6.26758C286.385 6.89168 286.208 7.2556 285.957 7.49461L287.336 8.94289C288.07 8.2444 288.385 7.30754 288.385 6.26758H286.385ZM285.957 7.49419C285.734 7.70682 285.301 7.9043 284.467 7.9043V9.9043C285.578 9.9043 286.598 9.64474 287.336 8.94331L285.957 7.49419ZM284.467 7.9043C283.625 7.9043 283.18 7.71187 282.949 7.50316C282.737 7.31184 282.549 6.96471 282.549 6.26758H280.549C280.549 7.32826 280.847 8.29948 281.608 8.98708C282.35 9.65727 283.364 9.9043 284.467 9.9043V7.9043ZM287.139 30H281.777V32H287.139V30ZM282.777 31V11.3477H280.777V31H282.777ZM281.777 12.3477H287.139V10.3477H281.777V12.3477ZM286.139 11.3477V31H288.139V11.3477H286.139ZM294.082 13.6328L294.808 14.3203L294.811 14.3179L294.082 13.6328ZM307.354 12.3145L308.288 12.6708L308.612 11.8205L307.796 11.4177L307.354 12.3145ZM305.771 16.4629L305.398 17.3905L306.343 17.7711L306.706 16.8192L305.771 16.4629ZM303.416 15.6367L303.123 16.5928L303.13 16.595L303.137 16.5971L303.416 15.6367ZM304.102 26.6055L304.395 27.5616L304.406 27.5579L304.102 26.6055ZM306.738 25.3047H307.738V23.4362L306.184 24.4726L306.738 25.3047ZM306.738 29.8926L307.274 30.7367L307.738 30.4421V29.8926H306.738ZM304.102 31.0352L303.871 30.0621L303.868 30.0628L304.102 31.0352ZM300.762 30.3516C297.883 30.3516 295.9 29.5657 294.619 28.1601C293.322 26.7367 292.586 24.5044 292.586 21.2793H290.586C290.586 24.769 291.379 27.5729 293.141 29.5069C294.919 31.4587 297.524 32.3516 300.762 32.3516V30.3516ZM292.586 21.2793C292.586 18.0969 293.378 15.8315 294.808 14.3203L293.356 12.9453C291.458 14.9497 290.586 17.782 290.586 21.2793H292.586ZM294.811 14.3179C296.236 12.8017 298.325 11.9785 301.236 11.9785V9.97852C297.936 9.97852 295.256 10.9248 293.354 12.9477L294.811 14.3179ZM301.236 11.9785C303.376 11.9785 305.261 12.3968 306.911 13.2112L307.796 11.4177C305.837 10.4508 303.643 9.97852 301.236 9.97852V11.9785ZM306.419 11.9581L304.837 16.1066L306.706 16.8192L308.288 12.6708L306.419 11.9581ZM306.145 15.5353C305.276 15.1854 304.459 14.8983 303.695 14.6764L303.137 16.5971C303.826 16.797 304.579 17.0607 305.398 17.3905L306.145 15.5353ZM303.709 14.6806C302.892 14.4302 302.067 14.3027 301.236 14.3027V16.3027C301.859 16.3027 302.487 16.3979 303.123 16.5928L303.709 14.6806ZM301.236 14.3027C299.573 14.3027 298.196 14.9129 297.281 16.2124C296.411 17.4477 296.053 19.1769 296.053 21.2441H298.053C298.053 19.3505 298.392 18.1089 298.916 17.3638C299.396 16.6828 300.11 16.3027 301.236 16.3027V14.3027ZM296.053 21.2441C296.053 23.2571 296.413 24.9474 297.289 26.1557C298.209 27.4234 299.585 28.0098 301.236 28.0098V26.0098C300.098 26.0098 299.383 25.6352 298.908 24.9811C298.39 24.2674 298.053 23.0749 298.053 21.2441H296.053ZM301.236 28.0098C302.355 28.0098 303.41 27.8635 304.395 27.5615L303.808 25.6494C303.035 25.8865 302.18 26.0098 301.236 26.0098V28.0098ZM304.406 27.5579C305.385 27.2446 306.348 26.7669 307.293 26.1367L306.184 24.4726C305.371 25.0143 304.575 25.4039 303.797 25.653L304.406 27.5579ZM305.738 25.3047V29.8926H307.738V25.3047H305.738ZM306.202 29.0484C305.418 29.5468 304.641 29.8797 303.871 30.0621L304.332 32.0082C305.343 31.7687 306.325 31.34 307.274 30.7367L306.202 29.0484ZM303.868 30.0628C303.093 30.2488 302.065 30.3516 300.762 30.3516V32.3516C302.154 32.3516 303.352 32.2434 304.335 32.0075L303.868 30.0628ZM338.783 27.625L338.101 26.8935L338.1 26.8951L338.783 27.625ZM321.082 31H320.082V32H321.082V31ZM321.082 5.30078V4.30078H320.082V5.30078H321.082ZM326.531 9.76562V8.76562H325.531V9.76562H326.531ZM326.531 26.5H325.531V27.5H326.531V26.5ZM341.404 17.9043C341.404 21.9402 340.259 24.8825 338.101 26.8935L339.465 28.3565C342.136 25.8675 343.404 22.3293 343.404 17.9043H341.404ZM338.1 26.8951C335.943 28.9146 332.75 30 328.359 30V32C333.062 32 336.818 30.8354 339.467 28.3549L338.1 26.8951ZM328.359 30H321.082V32H328.359V30ZM322.082 31V5.30078H320.082V31H322.082ZM321.082 6.30078H329.15V4.30078H321.082V6.30078ZM329.15 6.30078C333.17 6.30078 336.151 7.35853 338.233 9.3464L339.614 7.89969C337.056 5.45787 333.521 4.30078 329.15 4.30078V6.30078ZM338.233 9.3464C340.311 11.3294 341.404 14.1354 341.404 17.9043H343.404C343.404 13.7279 342.178 10.3464 339.614 7.89969L338.233 9.3464ZM337.744 18.0449C337.744 15.1595 337.11 12.8086 335.666 11.1735C334.2 9.51466 332.058 8.76562 329.432 8.76562V10.7656C331.681 10.7656 333.194 11.3965 334.167 12.4974C335.16 13.6221 335.744 15.4109 335.744 18.0449H337.744ZM329.432 8.76562H326.531V10.7656H329.432V8.76562ZM325.531 9.76562V26.5H327.531V9.76562H325.531ZM326.531 27.5H328.869V25.5H326.531V27.5ZM328.869 27.5C331.667 27.5 333.944 26.7456 335.507 25.0678C337.057 23.4034 337.744 21.0005 337.744 18.0449H335.744C335.744 20.7261 335.118 22.5507 334.044 23.7047C332.981 24.8452 331.321 25.5 328.869 25.5V27.5ZM361.23 31L360.269 31.2756L360.477 32H361.23V31ZM360.51 28.4863L361.471 28.2107L361.263 27.4863H360.51V28.4863ZM360.229 28.4863V27.4863H359.676L359.382 27.9544L360.229 28.4863ZM357.785 30.6133L358.208 31.5195L358.216 31.5156L357.785 30.6133ZM348.961 29.5059L348.234 30.1921L348.237 30.1955L348.961 29.5059ZM347.203 11.3477V10.3477H346.203V11.3477H347.203ZM352.564 11.3477H353.564V10.3477H352.564V11.3477ZM353.32 26.0254L352.503 26.6016L352.507 26.6079L353.32 26.0254ZM358.98 25.5859L359.811 26.1429L359.814 26.1384L358.98 25.5859ZM359.982 11.3477V10.3477H358.982V11.3477H359.982ZM365.344 11.3477H366.344V10.3477H365.344V11.3477ZM365.344 31V32H366.344V31H365.344ZM362.192 30.7244L361.471 28.2107L359.548 28.7619L360.269 31.2756L362.192 30.7244ZM360.51 27.4863H360.229V29.4863H360.51V27.4863ZM359.382 27.9544C358.917 28.6949 358.253 29.2817 357.354 29.711L358.216 31.5156C359.427 30.9371 360.392 30.1059 361.075 29.0183L359.382 27.9544ZM357.362 29.7071C356.459 30.1285 355.406 30.3516 354.182 30.3516V32.3516C355.652 32.3516 357.002 32.0825 358.208 31.5195L357.362 29.7071ZM354.182 30.3516C352.045 30.3516 350.608 29.7854 349.685 28.8162L348.237 30.1955C349.658 31.6873 351.701 32.3516 354.182 32.3516V30.3516ZM349.688 28.8196C348.746 27.8212 348.203 26.3204 348.203 24.1621H346.203C346.203 26.6445 346.832 28.7062 348.234 30.1921L349.688 28.8196ZM348.203 24.1621V11.3477H346.203V24.1621H348.203ZM347.203 12.3477H352.564V10.3477H347.203V12.3477ZM351.564 11.3477V22.8262H353.564V11.3477H351.564ZM351.564 22.8262C351.564 24.3332 351.827 25.6426 352.503 26.6015L354.138 25.4492C353.806 24.9785 353.564 24.1551 353.564 22.8262H351.564ZM352.507 26.6079C353.25 27.6437 354.403 28.0801 355.729 28.0801V26.0801C354.851 26.0801 354.399 25.8133 354.133 25.4429L352.507 26.6079ZM355.729 28.0801C357.467 28.0801 358.91 27.4862 359.811 26.1429L358.15 25.029C357.715 25.6779 356.99 26.0801 355.729 26.0801V28.0801ZM359.814 26.1384C360.652 24.8744 360.982 22.9584 360.982 20.5938H358.982C358.982 22.8697 358.645 24.2819 358.147 25.0335L359.814 26.1384ZM360.982 20.5938V11.3477H358.982V20.5938H360.982ZM359.982 12.3477H365.344V10.3477H359.982V12.3477ZM364.344 11.3477V31H366.344V11.3477H364.344ZM365.344 30H361.23V32H365.344V30ZM383.748 11.1367L384.745 11.2169L384.815 10.3471L383.962 10.16L383.748 11.1367ZM383.344 16.1641L383.083 17.1294L384.244 17.4433L384.341 16.2442L383.344 16.1641ZM377.754 17.3066L377.079 16.5687L377.074 16.5729L377.754 17.3066ZM376.33 31V32H377.33V31H376.33ZM370.969 31H369.969V32H370.969V31ZM370.969 11.3477V10.3477H369.969V11.3477H370.969ZM375.029 11.3477L376.002 11.1149L375.818 10.3477H375.029V11.3477ZM375.82 14.6523L374.848 14.8851L375.031 15.6523H375.82V14.6523ZM376.084 14.6523V15.6523H376.674L376.959 15.1364L376.084 14.6523ZM378.545 11.998L379.089 12.8374L379.091 12.8358L378.545 11.998ZM381.938 11.9785C382.623 11.9785 383.148 12.0289 383.534 12.1135L383.962 10.16C383.387 10.0336 382.705 9.97852 381.938 9.97852V11.9785ZM382.751 11.0566L382.347 16.0839L384.341 16.2442L384.745 11.2169L382.751 11.0566ZM383.605 15.1987C383.061 15.0516 382.44 14.9883 381.762 14.9883V16.9883C382.326 16.9883 382.76 17.0421 383.083 17.1294L383.605 15.1987ZM381.762 14.9883C379.881 14.9883 378.276 15.4739 377.079 16.5687L378.429 18.0445C379.154 17.3816 380.22 16.9883 381.762 16.9883V14.9883ZM377.074 16.5729C375.876 17.6822 375.33 19.2043 375.33 20.998H377.33C377.33 19.6277 377.733 18.6889 378.433 18.0404L377.074 16.5729ZM375.33 20.998V31H377.33V20.998H375.33ZM376.33 30H370.969V32H376.33V30ZM371.969 31V11.3477H369.969V31H371.969ZM370.969 12.3477H375.029V10.3477H370.969V12.3477ZM374.057 11.5804L374.848 14.8851L376.793 14.4196L376.002 11.1149L374.057 11.5804ZM375.82 15.6523H376.084V13.6523H375.82V15.6523ZM376.959 15.1364C377.491 14.175 378.199 13.4137 379.089 12.8374L378.001 11.1587C376.829 11.9183 375.896 12.9265 375.209 14.1683L376.959 15.1364ZM379.091 12.8358C379.975 12.2596 380.917 11.9785 381.938 11.9785V9.97852C380.521 9.97852 379.201 10.3771 377.999 11.1602L379.091 12.8358ZM399.797 31L398.865 31.3619L399.112 32H399.797V31ZM398.76 28.3281L399.692 27.9663L399.444 27.3281H398.76V28.3281ZM398.619 28.3281V27.3281H398.136L397.836 27.7064L398.619 28.3281ZM395.824 30.7012L396.24 31.6108L396.245 31.6085L395.824 30.7012ZM387.633 29.7344L386.926 30.4415L386.93 30.4453L387.633 29.7344ZM388.195 20.5234L388.756 21.3514L388.758 21.3504L388.195 20.5234ZM394.805 18.8711L394.774 17.8716L394.769 17.8717L394.805 18.8711ZM398.215 18.7656L398.246 19.7651L399.215 19.7352V18.7656H398.215ZM389.619 16.3398L388.721 16.7801L389.146 17.647L390.028 17.2526L389.619 16.3398ZM387.844 12.7188L387.38 11.8327L386.517 12.2844L386.946 13.159L387.844 12.7188ZM403.541 31V32H404.541V31H403.541ZM398.215 21.8945H399.215V20.8601L398.181 20.8951L398.215 21.8945ZM396.141 21.9648L396.171 22.9644L396.175 22.9643L396.141 21.9648ZM397.09 26.3594L396.4 25.6355L396.394 25.641L397.09 26.3594ZM400.729 30.6381L399.692 27.9663L397.828 28.69L398.865 31.3619L400.729 30.6381ZM398.76 27.3281H398.619V29.3281H398.76V27.3281ZM397.836 27.7064C396.997 28.7638 396.181 29.4338 395.404 29.7939L396.245 31.6085C397.39 31.0779 398.437 30.1659 399.402 28.9499L397.836 27.7064ZM395.409 29.7916C394.636 30.1443 393.551 30.3516 392.098 30.3516V32.3516C393.714 32.3516 395.114 32.1252 396.24 31.6108L395.409 29.7916ZM392.098 30.3516C390.41 30.3516 389.197 29.8755 388.336 29.0235L386.93 30.4453C388.248 31.7495 390.012 32.3516 392.098 32.3516V30.3516ZM388.34 29.0273C387.502 28.1891 387.016 26.9405 387.016 25.1289H385.016C385.016 27.3017 385.608 29.1234 386.926 30.4415L388.34 29.0273ZM387.016 25.1289C387.016 23.3029 387.632 22.1127 388.756 21.3514L387.634 19.6955C385.852 20.9029 385.016 22.7831 385.016 25.1289H387.016ZM388.758 21.3504C389.995 20.509 391.976 19.9732 394.841 19.8705L394.769 17.8717C391.751 17.98 389.325 18.5457 387.633 19.6965L388.758 21.3504ZM394.836 19.8706L398.246 19.7651L398.184 17.7661L394.774 17.8716L394.836 19.8706ZM399.215 18.7656V17.9043H397.215V18.7656H399.215ZM399.215 17.9043C399.215 16.7481 398.918 15.6986 398.149 14.9478C397.385 14.2012 396.324 13.916 395.156 13.916V15.916C396.027 15.916 396.496 16.1289 396.751 16.3784C397.002 16.6237 397.215 17.0683 397.215 17.9043H399.215ZM395.156 13.916C393.394 13.916 391.404 14.4456 389.211 15.4271L390.028 17.2526C392.077 16.3357 393.778 15.916 395.156 15.916V13.916ZM390.517 15.8996L388.742 12.2785L386.946 13.159L388.721 16.7801L390.517 15.8996ZM388.307 13.6048C390.415 12.5019 392.762 11.9434 395.367 11.9434V9.94336C392.465 9.94336 389.796 10.5684 387.38 11.8327L388.307 13.6048ZM395.367 11.9434C397.875 11.9434 399.637 12.4913 400.799 13.4405L402.064 11.8915C400.414 10.5439 398.133 9.94336 395.367 9.94336V11.9434ZM400.799 13.4405C401.908 14.3465 402.541 15.7664 402.541 17.9043H404.541C404.541 15.3547 403.767 13.2824 402.064 11.8915L400.799 13.4405ZM402.541 17.9043V31H404.541V17.9043H402.541ZM403.541 30H399.797V32H403.541V30ZM398.181 20.8951L396.107 20.9654L396.175 22.9643L398.249 22.894L398.181 20.8951ZM396.111 20.9653C394.479 21.0144 393.093 21.308 392.1 21.9805L393.221 23.6367C393.751 23.278 394.685 23.0091 396.171 22.9644L396.111 20.9653ZM392.1 21.9805C391.019 22.7117 390.518 23.8341 390.518 25.1641H392.518C392.518 24.3847 392.778 23.9367 393.221 23.6367L392.1 21.9805ZM390.518 25.1641C390.518 26.1125 390.796 26.9954 391.511 27.6186C392.2 28.2188 393.129 28.4316 394.119 28.4316V26.4316C393.375 26.4316 393.004 26.2665 392.825 26.1109C392.673 25.9782 392.518 25.7273 392.518 25.1641H390.518ZM394.119 28.4316C395.563 28.4316 396.823 28.0097 397.785 27.0778L396.394 25.641C395.88 26.1387 395.159 26.4316 394.119 26.4316V28.4316ZM397.78 27.0832C398.757 26.1521 399.215 24.9262 399.215 23.5117H397.215C397.215 24.4644 396.923 25.1369 396.4 25.6355L397.78 27.0832ZM399.215 23.5117V21.8945H397.215V23.5117H399.215ZM420.732 26.4648H421.732V25.1047L420.434 25.5104L420.732 26.4648ZM420.732 30.4551L421.141 31.3679L421.732 31.1032V30.4551H420.732ZM411.117 29.7344L410.371 30.4003L410.379 30.4086L411.117 29.7344ZM409.658 15.373H410.658V14.373H409.658V15.373ZM407.092 15.373H406.092V16.373H407.092V15.373ZM407.092 13.1055L406.573 12.2507L406.092 12.5427V13.1055H407.092ZM410.045 11.3125L410.564 12.1673L410.861 11.9871L410.982 11.6619L410.045 11.3125ZM411.592 7.16406V6.16406H410.897L410.655 6.81468L411.592 7.16406ZM415.02 7.16406H416.02V6.16406H415.02V7.16406ZM415.02 11.3477H414.02V12.3477H415.02V11.3477ZM420.521 11.3477H421.521V10.3477H420.521V11.3477ZM420.521 15.373V16.373H421.521V15.373H420.521ZM415.02 15.373V14.373H414.02V15.373H415.02ZM415.652 26.5352L415 27.293L415.01 27.3017L415.652 26.5352ZM417.357 28.0801C418.431 28.0801 419.662 27.8469 421.031 27.4193L420.434 25.5104C419.178 25.9031 418.159 26.0801 417.357 26.0801V28.0801ZM419.732 26.4648V30.4551H421.732V26.4648H419.732ZM420.324 29.5423C419.151 30.0668 417.659 30.3516 415.811 30.3516V32.3516C417.853 32.3516 419.641 32.0386 421.141 31.3679L420.324 29.5423ZM415.811 30.3516C413.814 30.3516 412.576 29.8494 411.856 29.0601L410.379 30.4086C411.627 31.7756 413.518 32.3516 415.811 32.3516V30.3516ZM411.863 29.0685C411.118 28.2331 410.658 26.8861 410.658 24.8477H408.658C408.658 27.1452 409.171 29.0559 410.371 30.4002L411.863 29.0685ZM410.658 24.8477V15.373H408.658V24.8477H410.658ZM409.658 14.373H407.092V16.373H409.658V14.373ZM408.092 15.373V13.1055H406.092V15.373H408.092ZM407.611 13.9603L410.564 12.1673L409.526 10.4577L406.573 12.2507L407.611 13.9603ZM410.982 11.6619L412.529 7.51344L410.655 6.81468L409.108 10.9631L410.982 11.6619ZM411.592 8.16406H415.02V6.16406H411.592V8.16406ZM414.02 7.16406V11.3477H416.02V7.16406H414.02ZM415.02 12.3477H420.521V10.3477H415.02V12.3477ZM419.521 11.3477V15.373H421.521V11.3477H419.521ZM420.521 14.373H415.02V16.373H420.521V14.373ZM414.02 15.373V24.8477H416.02V15.373H414.02ZM414.02 24.8477C414.02 25.7881 414.284 26.6769 415 27.2929L416.305 25.7774C416.177 25.6669 416.02 25.4307 416.02 24.8477H414.02ZM415.01 27.3017C415.664 27.8497 416.478 28.0801 417.357 28.0801V26.0801C416.83 26.0801 416.508 25.9472 416.295 25.7686L415.01 27.3017ZM429.592 8.21875L430.281 8.94331L430.281 8.94289L429.592 8.21875ZM430.084 31V32H431.084V31H430.084ZM424.723 31H423.723V32H424.723V31ZM424.723 11.3477V10.3477H423.723V11.3477H424.723ZM430.084 11.3477H431.084V10.3477H430.084V11.3477ZM425.494 6.26758C425.494 5.57828 425.681 5.2363 425.892 5.04741C426.123 4.84007 426.569 4.64844 427.412 4.64844V2.64844C426.31 2.64844 425.297 2.89333 424.556 3.55904C423.793 4.2432 423.494 5.21079 423.494 6.26758H425.494ZM427.412 4.64844C428.256 4.64844 428.702 4.84007 428.933 5.04741C429.143 5.2363 429.33 5.57828 429.33 6.26758H431.33C431.33 5.21079 431.031 4.2432 430.269 3.55904C429.527 2.89333 428.514 2.64844 427.412 2.64844V4.64844ZM429.33 6.26758C429.33 6.89168 429.153 7.2556 428.902 7.49461L430.281 8.94289C431.015 8.2444 431.33 7.30754 431.33 6.26758H429.33ZM428.903 7.49419C428.679 7.70682 428.247 7.9043 427.412 7.9043V9.9043C428.523 9.9043 429.544 9.64474 430.281 8.94331L428.903 7.49419ZM427.412 7.9043C426.57 7.9043 426.125 7.71187 425.894 7.50316C425.682 7.31184 425.494 6.96471 425.494 6.26758H423.494C423.494 7.32826 423.792 8.29948 424.553 8.98708C425.295 9.65727 426.309 9.9043 427.412 9.9043V7.9043ZM430.084 30H424.723V32H430.084V30ZM425.723 31V11.3477H423.723V31H425.723ZM424.723 12.3477H430.084V10.3477H424.723V12.3477ZM429.084 11.3477V31H431.084V11.3477H429.084ZM440.947 25.5508L440.103 26.087L440.108 26.094L440.947 25.5508ZM447.152 25.5684L446.308 25.0321L446.307 25.0347L447.152 25.5684ZM440.947 16.7617L441.782 17.3117L441.785 17.3071L440.947 16.7617ZM439.014 30.1211L438.514 30.9872L438.519 30.9902L439.014 30.1211ZM438.998 21.1387C438.998 23.1632 439.322 24.8576 440.103 26.087L441.791 25.0145C441.307 24.2518 440.998 23.0047 440.998 21.1387H438.998ZM440.108 26.094C440.978 27.4388 442.379 28.0449 444.076 28.0449V26.0449C442.89 26.0449 442.206 25.6549 441.787 25.0075L440.108 26.094ZM444.076 28.0449C445.759 28.0449 447.15 27.4456 447.998 26.102L446.307 25.0347C445.912 25.6599 445.253 26.0449 444.076 26.0449V28.0449ZM447.996 26.1046C448.778 24.8744 449.102 23.1736 449.102 21.1387H447.102C447.102 23.0179 446.792 24.2701 446.308 25.0321L447.996 26.1046ZM449.102 21.1387C449.102 19.1169 448.779 17.4275 447.991 16.2164L446.314 17.3071C446.792 18.0413 447.102 19.2699 447.102 21.1387H449.102ZM447.991 16.2164C447.127 14.8898 445.727 14.3027 444.041 14.3027V16.3027C445.238 16.3027 445.912 16.6883 446.314 17.3071L447.991 16.2164ZM444.041 14.3027C442.363 14.3027 440.971 14.8923 440.109 16.2164L441.785 17.3071C442.19 16.6859 442.86 16.3027 444.041 16.3027V14.3027ZM440.112 16.2117C439.32 17.4144 438.998 19.108 438.998 21.1387H440.998C440.998 19.2552 441.309 18.0309 441.782 17.3117L440.112 16.2117ZM452.586 21.1387C452.586 24.1615 451.792 26.3917 450.324 27.9615L451.785 29.3275C453.692 27.288 454.586 24.5142 454.586 21.1387H452.586ZM450.324 27.9615C448.866 29.5208 446.806 30.3516 444.006 30.3516V32.3516C447.229 32.3516 449.868 31.3776 451.785 29.3275L450.324 27.9615ZM444.006 30.3516C442.268 30.3516 440.779 29.9753 439.508 29.252L438.519 30.9902C440.131 31.9075 441.97 32.3516 444.006 32.3516V30.3516ZM439.514 29.255C438.249 28.5249 437.275 27.4844 436.586 26.1055L434.797 26.9999C435.654 28.7148 436.896 30.0532 438.514 30.9872L439.514 29.255ZM436.586 26.1055C435.894 24.7218 435.531 23.0756 435.531 21.1387H433.531C433.531 23.3268 433.942 25.2899 434.797 26.9999L436.586 26.1055ZM435.531 21.1387C435.531 18.1004 436.321 15.8792 437.773 14.3356L436.317 12.9652C434.417 14.9841 433.531 17.7551 433.531 21.1387H435.531ZM437.773 14.3356C439.216 12.8017 441.281 11.9785 444.111 11.9785V9.97852C440.871 9.97852 438.225 10.9366 436.317 12.9652L437.773 14.3356ZM444.111 11.9785C445.849 11.9785 447.338 12.3548 448.609 13.0781L449.598 11.3399C447.986 10.4225 446.147 9.97852 444.111 9.97852V11.9785ZM448.609 13.0781C449.873 13.7973 450.844 14.8261 451.533 16.1921L453.319 15.2922C452.46 13.588 451.217 12.2613 449.598 11.3399L448.609 13.0781ZM451.533 16.1921C452.223 17.5625 452.586 19.2015 452.586 21.1387H454.586C454.586 18.9508 454.175 16.9922 453.319 15.2922L451.533 16.1921ZM476.156 31V32H477.156V31H476.156ZM470.795 31H469.795V32H470.795V31ZM470.039 16.3398L469.222 16.916L469.226 16.9224L470.039 16.3398ZM464.379 16.7793L465.209 17.3363L465.212 17.3318L464.379 16.7793ZM463.377 31V32H464.377V31H463.377ZM458.016 31H457.016V32H458.016V31ZM458.016 11.3477V10.3477H457.016V11.3477H458.016ZM462.111 11.3477L463.073 11.072L462.865 10.3477H462.111V11.3477ZM462.832 13.8613L461.871 14.1369L462.078 14.8613H462.832V13.8613ZM463.131 13.8613V14.8613H463.683L463.977 14.3941L463.131 13.8613ZM465.592 11.7168L466.01 12.6251L466.015 12.623L465.592 11.7168ZM474.381 12.8418L473.657 13.5316L473.66 13.535L474.381 12.8418ZM476.156 30H470.795V32H476.156V30ZM471.795 31V19.5215H469.795V31H471.795ZM471.795 19.5215C471.795 18.0164 471.533 16.7079 470.852 15.7573L469.226 16.9224C469.553 17.378 469.795 18.1907 469.795 19.5215H471.795ZM470.856 15.7637C470.117 14.7143 468.963 14.2676 467.631 14.2676V16.2676C468.502 16.2676 468.954 16.5357 469.222 16.916L470.856 15.7637ZM467.631 14.2676C465.887 14.2676 464.444 14.8708 463.545 16.2268L465.212 17.3318C465.65 16.6722 466.374 16.2676 467.631 16.2676V14.2676ZM463.548 16.2223C462.707 17.4771 462.377 19.391 462.377 21.7539H464.377C464.377 19.4762 464.715 18.0737 465.209 17.3362L463.548 16.2223ZM462.377 21.7539V31H464.377V21.7539H462.377ZM463.377 30H458.016V32H463.377V30ZM459.016 31V11.3477H457.016V31H459.016ZM458.016 12.3477H462.111V10.3477H458.016V12.3477ZM461.15 11.6233L461.871 14.1369L463.793 13.5857L463.073 11.072L461.15 11.6233ZM462.832 14.8613H463.131V12.8613H462.832V14.8613ZM463.977 14.3941C464.469 13.6129 465.139 13.0265 466.01 12.6251L465.173 10.8085C463.959 11.368 462.988 12.2113 462.285 13.3285L463.977 14.3941ZM466.015 12.623C466.919 12.2011 467.966 11.9785 469.178 11.9785V9.97852C467.717 9.97852 466.374 10.2481 465.169 10.8106L466.015 12.623ZM469.178 11.9785C471.284 11.9785 472.719 12.5469 473.657 13.5316L475.105 12.152C473.676 10.6523 471.642 9.97852 469.178 9.97852V11.9785ZM473.66 13.535C474.607 14.5198 475.156 16.0157 475.156 18.1855H477.156C477.156 15.6913 476.522 13.6248 475.102 12.1486L473.66 13.535ZM475.156 18.1855V31H477.156V18.1855H475.156Z" fill="black" mask="url(#path-1-outside-1_26_3)"/>
</g>
<defs>
<filter id="filter0_d_26_3" x="0.234375" y="0.455078" width="482.922" height="37.8965" filterUnits="userSpaceOnUse" color-interpolation-filters="sRGB">
<feFlood flood-opacity="0" result="BackgroundImageFix"/>
<feColorMatrix in="SourceAlpha" type="matrix" values="0 0 0 0 0 0 0 0 0 0 0 0 0 0 0 0 0 0 127 0" result="hardAlpha"/>
<feOffset dx="2" dy="2"/>
<feGaussianBlur stdDeviation="2.5"/>
<feComposite in2="hardAlpha" operator="out"/>
<feColorMatrix type="matrix" values="0 0 0 0 0.139167 0 0 0 0 0.139167 0 0 0 0 0.139167 0 0 0 0.25 0"/>
<feBlend mode="normal" in2="BackgroundImageFix" result="effect1_dropShadow_26_3"/>
<feBlend mode="normal" in="SourceGraphic" in2="effect1_dropShadow_26_3" result="shape"/>
</filter>
</defs>
</svg>
