<svg width="73" height="37" viewBox="0 0 73 37" fill="none" xmlns="http://www.w3.org/2000/svg">
<g filter="url(#filter0_d_26_3)">
<mask id="path-1-outside-1_26_3" maskUnits="userSpaceOnUse" x="2" y="2" width="65" height="29" fill="black">
<rect fill="white" x="2" y="2" width="65" height="29"/>
<path d="M14.96 29H3.512V27.704L4.664 27.092C5.96 26.372 6.176 25.868 6.176 24.68V8.66C6.176 7.472 5.96 6.932 4.664 6.248L3.512 5.636V4.34H14.96V5.636L13.808 6.248C12.512 6.932 12.26 7.472 12.26 8.66V24.68C12.26 25.868 12.512 26.372 13.808 27.092L14.96 27.704V29ZM27.5004 29.36C24.2244 29.36 20.8404 28.496 18.7884 27.128V19.928H20.1204L21.2724 22.124C22.8564 25.184 25.0164 26.732 27.5724 26.732C29.7324 26.732 31.3884 25.4 31.3884 23.672C31.3884 21.872 29.9124 20.684 24.8364 18.344C20.6604 16.436 18.8244 14.276 18.8244 11.144C18.8244 6.896 22.3164 3.98 27.3204 3.98C29.7684 3.98 33.0084 4.628 34.7724 5.564L35.2044 11.972H33.8724L32.7924 10.388C30.9924 7.832 29.1564 6.608 27.0324 6.608C25.1964 6.608 23.8284 7.688 23.8284 9.056C23.8284 10.532 25.1604 11.576 29.6604 13.844C34.8804 16.508 36.7164 18.524 36.7164 21.8C36.7164 26.264 32.9724 29.36 27.5004 29.36ZM52.4937 29H40.1097V27.704L41.2617 27.092C42.5577 26.372 42.7737 25.868 42.7737 24.68V8.66C42.7737 7.472 42.5577 6.932 41.2617 6.248L40.1097 5.636V4.34H52.4937C59.6937 4.34 65.3817 8.732 65.3817 16.76C65.3817 24.68 59.6937 29 52.4937 29ZM48.8577 6.788V26.552H50.8377C55.5897 26.552 58.9377 22.844 58.9377 16.76C58.9377 10.568 55.5897 6.788 50.8377 6.788H48.8577Z"/>
</mask>
<path d="M14.96 29H3.512V27.704L4.664 27.092C5.96 26.372 6.176 25.868 6.176 24.68V8.66C6.176 7.472 5.96 6.932 4.664 6.248L3.512 5.636V4.34H14.96V5.636L13.808 6.248C12.512 6.932 12.26 7.472 12.26 8.66V24.68C12.26 25.868 12.512 26.372 13.808 27.092L14.96 27.704V29ZM27.5004 29.36C24.2244 29.36 20.8404 28.496 18.7884 27.128V19.928H20.1204L21.2724 22.124C22.8564 25.184 25.0164 26.732 27.5724 26.732C29.7324 26.732 31.3884 25.4 31.3884 23.672C31.3884 21.872 29.9124 20.684 24.8364 18.344C20.6604 16.436 18.8244 14.276 18.8244 11.144C18.8244 6.896 22.3164 3.98 27.3204 3.98C29.7684 3.98 33.0084 4.628 34.7724 5.564L35.2044 11.972H33.8724L32.7924 10.388C30.9924 7.832 29.1564 6.608 27.0324 6.608C25.1964 6.608 23.8284 7.688 23.8284 9.056C23.8284 10.532 25.1604 11.576 29.6604 13.844C34.8804 16.508 36.7164 18.524 36.7164 21.8C36.7164 26.264 32.9724 29.36 27.5004 29.36ZM52.4937 29H40.1097V27.704L41.2617 27.092C42.5577 26.372 42.7737 25.868 42.7737 24.68V8.66C42.7737 7.472 42.5577 6.932 41.2617 6.248L40.1097 5.636V4.34H52.4937C59.6937 4.34 65.3817 8.732 65.3817 16.76C65.3817 24.68 59.6937 29 52.4937 29ZM48.8577 6.788V26.552H50.8377C55.5897 26.552 58.9377 22.844 58.9377 16.76C58.9377 10.568 55.5897 6.788 50.8377 6.788H48.8577Z" fill="#F6F6F6"/>
<path d="M14.96 29V30H15.96V29H14.96ZM3.512 29H2.512V30H3.512V29ZM3.512 27.704L3.04284 26.8209L2.512 27.1029V27.704H3.512ZM4.664 27.092L5.13316 27.9751L5.14144 27.9707L5.14964 27.9662L4.664 27.092ZM4.664 6.248L4.19484 7.13112L4.19724 7.13238L4.664 6.248ZM3.512 5.636H2.512V6.2371L3.04284 6.51911L3.512 5.636ZM3.512 4.34V3.34H2.512V4.34H3.512ZM14.96 4.34H15.96V3.34H14.96V4.34ZM14.96 5.636L15.4292 6.51911L15.96 6.2371V5.636H14.96ZM13.808 6.248L14.2748 7.13239L14.2772 7.13111L13.808 6.248ZM13.808 27.092L13.3224 27.9662L13.3306 27.9707L13.3388 27.9751L13.808 27.092ZM14.96 27.704H15.96V27.1029L15.4292 26.8209L14.96 27.704ZM14.96 28H3.512V30H14.96V28ZM4.512 29V27.704H2.512V29H4.512ZM3.98116 28.5871L5.13316 27.9751L4.19484 26.2089L3.04284 26.8209L3.98116 28.5871ZM5.14964 27.9662C5.83924 27.583 6.41114 27.1706 6.76629 26.5713C7.1266 25.9633 7.176 25.309 7.176 24.68H5.176C5.176 25.239 5.1174 25.4307 5.04571 25.5517C4.96886 25.6814 4.78476 25.881 4.17836 26.2178L5.14964 27.9662ZM7.176 24.68V8.66H5.176V24.68H7.176ZM7.176 8.66C7.176 8.0319 7.12669 7.37085 6.76901 6.75982C6.41144 6.14897 5.83406 5.7348 5.13076 5.36361L4.19724 7.13238C4.78994 7.4452 4.96856 7.64303 5.04299 7.77018C5.11731 7.89714 5.176 8.1001 5.176 8.66H7.176ZM5.13316 5.36488L3.98116 4.75288L3.04284 6.51911L4.19484 7.13111L5.13316 5.36488ZM4.512 5.636V4.34H2.512V5.636H4.512ZM3.512 5.34H14.96V3.34H3.512V5.34ZM13.96 4.34V5.636H15.96V4.34H13.96ZM14.4908 4.75288L13.3388 5.36488L14.2772 7.13111L15.4292 6.51911L14.4908 4.75288ZM13.3412 5.36361C12.6421 5.7326 12.0611 6.14274 11.6942 6.74439C11.3222 7.35455 11.26 8.01587 11.26 8.66H13.26C13.26 8.11613 13.3238 7.91345 13.4018 7.78561C13.4849 7.64925 13.6779 7.4474 14.2748 7.13238L13.3412 5.36361ZM11.26 8.66V24.68H13.26V8.66H11.26ZM11.26 24.68C11.26 25.3253 11.3224 25.9798 11.6971 26.5868C12.0613 27.1768 12.6369 27.5854 13.3224 27.9662L14.2936 26.2178C13.6831 25.8786 13.4847 25.6752 13.3989 25.5362C13.3236 25.4142 13.26 25.2227 13.26 24.68H11.26ZM13.3388 27.9751L14.4908 28.5871L15.4292 26.8209L14.2772 26.2089L13.3388 27.9751ZM13.96 27.704V29H15.96V27.704H13.96ZM18.7884 27.128H17.7884V27.6632L18.2337 27.9601L18.7884 27.128ZM18.7884 19.928V18.928H17.7884V19.928H18.7884ZM20.1204 19.928L21.0059 19.4635L20.725 18.928H20.1204V19.928ZM21.2724 22.124L22.1605 21.6643L22.1579 21.6595L21.2724 22.124ZM24.8364 18.344L25.255 17.4358L25.2519 17.4344L24.8364 18.344ZM34.7724 5.564L35.7701 5.49674L35.7327 4.94149L35.2411 4.68065L34.7724 5.564ZM35.2044 11.972V12.972H36.2741L36.2021 11.9047L35.2044 11.972ZM33.8724 11.972L33.0461 12.5353L33.3439 12.972H33.8724V11.972ZM32.7924 10.388L33.6186 9.82466L33.6143 9.81841L33.61 9.81222L32.7924 10.388ZM29.6604 13.844L30.115 12.9533L30.1104 12.951L29.6604 13.844ZM27.5004 28.36C24.357 28.36 21.1841 27.5233 19.3431 26.2959L18.2337 27.9601C20.4967 29.4687 24.0918 30.36 27.5004 30.36V28.36ZM19.7884 27.128V19.928H17.7884V27.128H19.7884ZM18.7884 20.928H20.1204V18.928H18.7884V20.928ZM19.2348 20.3925L20.3868 22.5885L22.1579 21.6595L21.0059 19.4635L19.2348 20.3925ZM20.3843 22.5837C22.077 25.8537 24.5228 27.732 27.5724 27.732V25.732C25.51 25.732 23.6358 24.5143 22.1604 21.6643L20.3843 22.5837ZM27.5724 27.732C30.0682 27.732 32.3884 26.1463 32.3884 23.672H30.3884C30.3884 24.6537 29.3965 25.732 27.5724 25.732V27.732ZM32.3884 23.672C32.3884 23.0736 32.2628 22.4949 31.9573 21.9321C31.6586 21.3817 31.2141 20.8951 30.6461 20.4341C29.5335 19.5311 27.7884 18.6037 25.255 17.4359L24.4177 19.2521C26.9603 20.4243 28.4912 21.2609 29.3857 21.9869C29.8211 22.3404 30.0629 22.6345 30.1996 22.8862C30.3295 23.1256 30.3884 23.3704 30.3884 23.672H32.3884ZM25.2519 17.4344C23.2293 16.5103 21.8766 15.5695 21.0307 14.5605C20.2093 13.5809 19.8244 12.4889 19.8244 11.144H17.8244C17.8244 12.9311 18.3574 14.4851 19.4981 15.8455C20.6141 17.1765 22.2674 18.2697 24.4208 19.2536L25.2519 17.4344ZM19.8244 11.144C19.8244 9.31533 20.5668 7.80444 21.8394 6.73439C23.1252 5.65324 25.0076 4.98 27.3204 4.98V2.98C24.6292 2.98 22.2635 3.76475 20.5523 5.20361C18.8279 6.65356 17.8244 8.72467 17.8244 11.144H19.8244ZM27.3204 4.98C29.6613 4.98 32.7267 5.61061 34.3037 6.44735L35.2411 4.68065C33.29 3.64539 29.8754 2.98 27.3204 2.98V4.98ZM33.7746 5.63126L34.2066 12.0393L36.2021 11.9047L35.7701 5.49674L33.7746 5.63126ZM35.2044 10.972H33.8724V12.972H35.2044V10.972ZM34.6986 11.4087L33.6186 9.82466L31.9661 10.9513L33.0461 12.5353L34.6986 11.4087ZM33.61 9.81222C31.7214 7.13037 29.6219 5.608 27.0324 5.608V7.608C28.6909 7.608 30.2634 8.53363 31.9748 10.9638L33.61 9.81222ZM27.0324 5.608C24.9006 5.608 22.8284 6.91014 22.8284 9.056H24.8284C24.8284 8.46586 25.4921 7.608 27.0324 7.608V5.608ZM22.8284 9.056C22.8284 10.1983 23.391 11.0863 24.4255 11.9285C25.4165 12.7352 26.9678 13.6068 29.2103 14.737L30.1104 12.951C27.8529 11.8132 26.4882 11.0287 25.6882 10.3775C24.9317 9.76167 24.8284 9.38974 24.8284 9.056H22.8284ZM29.2058 14.7347C31.7913 16.0542 33.4166 17.1558 34.3995 18.258C35.3361 19.3083 35.7164 20.3895 35.7164 21.8H37.7164C37.7164 19.9345 37.1787 18.3697 35.8922 16.927C34.6521 15.5362 32.7495 14.2978 30.1149 12.9533L29.2058 14.7347ZM35.7164 21.8C35.7164 23.7292 34.9171 25.3372 33.5253 26.4816C32.1189 27.638 30.0539 28.36 27.5004 28.36V30.36C30.4188 30.36 32.9619 29.534 34.7955 28.0264C36.6436 26.5068 37.7164 24.3348 37.7164 21.8H35.7164ZM40.1097 29H39.1097V30H40.1097V29ZM40.1097 27.704L39.6405 26.8209L39.1097 27.1029V27.704H40.1097ZM41.2617 27.092L41.7308 27.9751L41.7391 27.9707L41.7473 27.9662L41.2617 27.092ZM41.2617 6.248L40.7925 7.13112L40.7949 7.13238L41.2617 6.248ZM40.1097 5.636H39.1097V6.2371L39.6405 6.51911L40.1097 5.636ZM40.1097 4.34V3.34H39.1097V4.34H40.1097ZM48.8577 6.788V5.788H47.8577V6.788H48.8577ZM48.8577 26.552H47.8577V27.552H48.8577V26.552ZM52.4937 28H40.1097V30H52.4937V28ZM41.1097 29V27.704H39.1097V29H41.1097ZM40.5788 28.5871L41.7308 27.9751L40.7925 26.2089L39.6405 26.8209L40.5788 28.5871ZM41.7473 27.9662C42.4369 27.583 43.0088 27.1706 43.3639 26.5713C43.7243 25.9633 43.7737 25.309 43.7737 24.68H41.7737C41.7737 25.239 41.7151 25.4307 41.6434 25.5517C41.5665 25.6814 41.3824 25.881 40.776 26.2178L41.7473 27.9662ZM43.7737 24.68V8.66H41.7737V24.68H43.7737ZM43.7737 8.66C43.7737 8.0319 43.7243 7.37085 43.3667 6.75982C43.0091 6.14897 42.4317 5.7348 41.7284 5.36361L40.7949 7.13238C41.3876 7.4452 41.5662 7.64303 41.6406 7.77018C41.715 7.89714 41.7737 8.1001 41.7737 8.66H43.7737ZM41.7308 5.36488L40.5788 4.75288L39.6405 6.51911L40.7925 7.13111L41.7308 5.36488ZM41.1097 5.636V4.34H39.1097V5.636H41.1097ZM40.1097 5.34H52.4937V3.34H40.1097V5.34ZM52.4937 5.34C55.8953 5.34 58.8623 6.37641 60.9666 8.28093C63.0573 10.1731 64.3817 12.9976 64.3817 16.76H66.3817C66.3817 12.4944 64.862 9.10894 62.3087 6.79806C59.769 4.49958 56.292 3.34 52.4937 3.34V5.34ZM64.3817 16.76C64.3817 20.4637 63.0608 23.2417 60.9722 25.1035C58.8684 26.979 55.8996 28 52.4937 28V30C56.2877 30 59.7629 28.861 62.3031 26.5965C64.8586 24.3183 66.3817 20.9763 66.3817 16.76H64.3817ZM47.8577 6.788V26.552H49.8577V6.788H47.8577ZM48.8577 27.552H50.8377V25.552H48.8577V27.552ZM50.8377 27.552C53.4922 27.552 55.8017 26.5072 57.4323 24.5843C59.051 22.6755 59.9377 19.9796 59.9377 16.76H57.9377C57.9377 19.6244 57.1503 21.8245 55.907 23.2907C54.6756 24.7428 52.9351 25.552 50.8377 25.552V27.552ZM59.9377 16.76C59.9377 13.4906 59.0533 10.7523 57.4382 8.81221C55.81 6.85634 53.4992 5.788 50.8377 5.788V7.788C52.9281 7.788 54.6673 8.60965 55.9011 10.0918C57.148 11.5897 57.9377 13.8374 57.9377 16.76H59.9377ZM50.8377 5.788H48.8577V7.788H50.8377V5.788Z" fill="black" mask="url(#path-1-outside-1_26_3)"/>
</g>
<defs>
<filter id="filter0_d_26_3" x="0.512001" y="0.979996" width="71.8697" height="35.38" filterUnits="userSpaceOnUse" color-interpolation-filters="sRGB">
<feFlood flood-opacity="0" result="BackgroundImageFix"/>
<feColorMatrix in="SourceAlpha" type="matrix" values="0 0 0 0 0 0 0 0 0 0 0 0 0 0 0 0 0 0 127 0" result="hardAlpha"/>
<feOffset dx="2" dy="2"/>
<feGaussianBlur stdDeviation="2.5"/>
<feComposite in2="hardAlpha" operator="out"/>
<feColorMatrix type="matrix" values="0 0 0 0 0.139167 0 0 0 0 0.139167 0 0 0 0 0.139167 0 0 0 0.25 0"/>
<feBlend mode="normal" in2="BackgroundImageFix" result="effect1_dropShadow_26_3"/>
<feBlend mode="normal" in="SourceGraphic" in2="effect1_dropShadow_26_3" result="shape"/>
</filter>
</defs>
</svg>
